<svg width="1920" height="1076" viewBox="0 0 1920 1076" fill="none" xmlns="http://www.w3.org/2000/svg">
<rect width="1920" height="1040" fill="#FFEEBF"/>
<rect width="1920" height="1040" fill="#F39200"/>
<path d="M1356 0H1920V476C1920 787.489 1667.49 1040 1356 1040V1040V0Z" fill="#FFEEBF"/>
<line x1="1272.42" y1="369.085" x2="1735.74" y2="636.585" stroke="white" stroke-opacity="0.6" stroke-width="5" stroke-linecap="round"/>
<line x1="1272.42" y1="339.085" x2="1735.74" y2="606.585" stroke="#F39200" stroke-width="5" stroke-linecap="round"/>
<line x1="1252.42" y1="399.085" x2="1715.74" y2="666.585" stroke="#F39200" stroke-width="5" stroke-linecap="round"/>
<line x1="1272.42" y1="309.085" x2="1735.74" y2="576.585" stroke="white" stroke-opacity="0.6" stroke-width="5" stroke-linecap="round"/>
<line x1="1228.42" y1="429.085" x2="1691.74" y2="696.585" stroke="white" stroke-opacity="0.6" stroke-width="5" stroke-linecap="round"/>
<line x1="1272.42" y1="279.085" x2="1735.74" y2="546.585" stroke="#F39200" stroke-width="5" stroke-linecap="round"/>
<line x1="1272.42" y1="249.085" x2="1735.74" y2="516.585" stroke="white" stroke-opacity="0.6" stroke-width="5" stroke-linecap="round"/>
<line x1="1272.42" y1="219.085" x2="1735.74" y2="486.585" stroke="#F39200" stroke-width="5" stroke-linecap="round"/>
<path d="M362.896 1021C354.563 1021 346.98 1019.67 340.146 1017C333.313 1014.17 327.396 1010.25 322.396 1005.25C317.563 1000.08 313.73 993.833 310.896 986.5C308.23 979.167 306.896 970.917 306.896 961.75C306.896 951.417 308.563 941.583 311.896 932.25C315.23 922.917 319.896 914.75 325.896 907.75C332.063 900.75 339.48 895.25 348.146 891.25C356.813 887.083 366.48 885 377.146 885C384.313 885 390.73 886.083 396.396 888.25C402.063 890.417 406.813 893.25 410.646 896.75C414.646 900.25 417.646 904.333 419.646 909C421.813 913.667 422.896 918.5 422.896 923.5C422.896 932.833 420.646 940.417 416.146 946.25C411.813 952.083 406.313 956.75 399.646 960.25C392.98 963.583 385.646 965.917 377.646 967.25C369.646 968.417 362.063 969 354.896 969C350.396 969 345.896 968.833 341.396 968.5C337.063 968 333.23 967.5 329.896 967C331.23 978 335.063 986.417 341.396 992.25C347.896 998.083 356.313 1001 366.646 1001C374.98 1001 382.396 999.917 388.896 997.75C395.396 995.583 400.896 993.417 405.396 991.25L407.396 1011.25C402.396 1013.58 396.063 1015.83 388.396 1018C380.896 1020 372.396 1021 362.896 1021ZM375.396 904C369.563 904 364.063 905.167 358.896 907.5C353.896 909.667 349.396 912.75 345.396 916.75C341.563 920.75 338.313 925.5 335.646 931C333.146 936.5 331.396 942.5 330.396 949C334.23 949.833 338.063 950.417 341.896 950.75C345.73 951.083 350.063 951.25 354.896 951.25C369.063 951.25 380.146 949.333 388.146 945.5C396.313 941.5 400.396 934.75 400.396 925.25C400.396 919.417 398.063 914.417 393.396 910.25C388.896 906.083 382.896 904 375.396 904ZM436.291 966.75C436.291 954.75 438.291 943.75 442.291 933.75C446.458 923.583 452.208 914.917 459.541 907.75C466.874 900.583 475.624 895 485.791 891C495.958 887 507.041 885 519.041 885C528.874 885 537.458 886 544.791 888C552.291 890 558.458 892 563.291 894L547.541 982.75C547.374 983.583 547.208 984.583 547.041 985.75C547.041 986.75 547.041 987.833 547.041 989C547.041 993.667 548.374 997 551.041 999C553.708 1000.83 557.208 1001.75 561.541 1001.75L553.791 1019.25C544.791 1019.25 537.874 1017.08 533.041 1012.75C528.374 1008.42 526.041 1001.5 526.041 992C521.374 1000 515.458 1006.83 508.291 1012.5C501.291 1018.17 493.041 1021 483.541 1021C477.374 1021 471.458 1019.75 465.791 1017.25C460.124 1014.75 455.041 1011.17 450.541 1006.5C446.208 1001.83 442.708 996.167 440.041 989.5C437.541 982.667 436.291 975.083 436.291 966.75ZM538.541 907.25C535.374 906.25 532.041 905.5 528.541 905C525.208 904.333 521.124 904 516.291 904C507.624 904 499.791 905.5 492.791 908.5C485.791 911.5 479.791 915.667 474.791 921C469.791 926.333 465.958 932.667 463.291 940C460.624 947.333 459.291 955.333 459.291 964C459.291 970 460.124 975.333 461.791 980C463.624 984.5 465.958 988.333 468.791 991.5C471.624 994.667 474.791 997.083 478.291 998.75C481.958 1000.25 485.708 1001 489.541 1001C494.541 1001 499.291 999.667 503.791 997C508.458 994.333 512.624 990.583 516.291 985.75C519.958 980.75 523.124 974.917 525.791 968.25C528.458 961.417 530.458 954 531.791 946L538.541 907.25ZM675.24 916.25C670.407 912.917 664.99 910 658.99 907.5C653.157 905 646.49 903.75 638.99 903.75C630.99 903.75 624.824 905.083 620.49 907.75C616.324 910.417 614.24 913.917 614.24 918.25C614.24 920.25 614.574 922.083 615.24 923.75C616.074 925.417 617.407 927.167 619.24 929C621.24 930.667 623.907 932.5 627.24 934.5C630.574 936.5 634.824 938.833 639.99 941.5C651.49 947.333 659.907 953.25 665.24 959.25C670.74 965.083 673.49 972.5 673.49 981.5C673.49 988.167 672.157 994 669.49 999C666.824 1003.83 663.074 1007.92 658.24 1011.25C653.574 1014.42 648.074 1016.83 641.74 1018.5C635.407 1020.17 628.574 1021 621.24 1021C611.074 1021 602.074 1019.75 594.24 1017.25C586.574 1014.58 579.907 1011.17 574.24 1007L586.99 988.5C591.49 992.167 596.74 995.25 602.74 997.75C608.907 1000.25 615.74 1001.5 623.24 1001.5C631.74 1001.5 638.324 999.917 642.99 996.75C647.824 993.583 650.24 989.667 650.24 985C650.24 982.833 649.824 980.833 648.99 979C648.324 977 646.99 975 644.99 973C642.99 971 640.24 969 636.74 967C633.407 964.833 629.157 962.417 623.99 959.75C617.657 956.583 612.407 953.583 608.24 950.75C604.24 947.75 600.99 944.667 598.49 941.5C596.157 938.333 594.49 935 593.49 931.5C592.49 927.833 591.99 923.833 591.99 919.5C591.99 914.5 593.157 909.917 595.49 905.75C597.824 901.417 601.074 897.75 605.24 894.75C609.407 891.75 614.407 889.417 620.24 887.75C626.074 885.917 632.49 885 639.49 885C648.824 885 657.157 886.25 664.49 888.75C671.99 891.083 678.574 893.917 684.24 897.25L675.24 916.25ZM742.324 998C746.991 998 751.658 996.917 756.324 994.75C760.991 992.417 765.324 989.083 769.324 984.75C773.491 980.417 777.074 975.083 780.074 968.75C783.074 962.417 785.324 955.167 786.824 947L797.074 888H819.574L796.824 1019.5C794.824 1031 791.741 1040.33 787.574 1047.5C783.408 1054.83 778.658 1060.58 773.324 1064.75C767.991 1069.08 762.324 1072 756.324 1073.5C750.324 1075.17 744.408 1076 738.574 1076C727.241 1076 717.574 1073.67 709.574 1069C701.741 1064.5 695.324 1059.08 690.324 1052.75L707.824 1039.75C715.991 1050.92 726.741 1056.5 740.074 1056.5C748.408 1056.5 755.741 1053.42 762.074 1047.25C768.408 1041.08 772.908 1030.58 775.574 1015.75L780.324 989.25C775.324 997.25 768.991 1004.08 761.324 1009.75C753.658 1015.25 744.824 1018 734.824 1018C729.824 1018 725.158 1017.17 720.824 1015.5C716.491 1013.83 712.658 1011.42 709.324 1008.25C705.991 1005.08 703.324 1001.25 701.324 996.75C699.491 992.25 698.574 987.167 698.574 981.5C698.574 979.667 698.658 977.583 698.824 975.25C698.991 972.917 699.241 970.417 699.574 967.75L713.074 888H735.574L721.824 967.25C721.324 970.25 721.074 973.083 721.074 975.75C721.074 983.25 723.158 988.833 727.324 992.5C731.491 996.167 736.491 998 742.324 998ZM1073.66 904.75C1069.5 904.75 1065 905.917 1060.16 908.25C1055.33 910.583 1050.66 914.167 1046.16 919C1041.83 923.833 1037.83 930 1034.16 937.5C1030.66 945 1028 953.917 1026.16 964.25L1016.66 1018H994.162L1008.41 940.25C1009.25 936.25 1009.75 933.333 1009.91 931.5C1010.08 929.667 1010.16 927.833 1010.16 926C1010.16 919.5 1008.25 914.333 1004.41 910.5C1000.75 906.667 995.912 904.75 989.912 904.75C985.579 904.75 980.995 906 976.162 908.5C971.329 910.833 966.662 914.5 962.162 919.5C957.662 924.5 953.579 930.917 949.912 938.75C946.412 946.417 943.745 955.583 941.912 966.25L932.912 1018H910.412L933.162 888H954.912L949.412 918C954.412 908 961.162 900 969.662 894C978.162 888 987.079 885 996.412 885C1001.58 885 1006.25 885.833 1010.41 887.5C1014.58 889.167 1018.16 891.5 1021.16 894.5C1024.33 897.333 1026.83 900.833 1028.66 905C1030.5 909 1031.66 913.333 1032.16 918C1037.83 907.5 1044.75 899.417 1052.91 893.75C1061.25 887.917 1070.25 885 1079.91 885C1085.41 885 1090.41 885.917 1094.91 887.75C1099.41 889.583 1103.25 892.167 1106.41 895.5C1109.58 898.667 1112 902.417 1113.66 906.75C1115.5 911.083 1116.41 915.75 1116.41 920.75C1116.41 925.083 1115.91 930.333 1114.91 936.5L1100.41 1018H1077.91L1092.16 940.25C1093 936.25 1093.5 933.333 1093.66 931.5C1093.83 929.667 1093.91 927.833 1093.91 926C1093.91 919.5 1092 914.333 1088.16 910.5C1084.5 906.667 1079.66 904.75 1073.66 904.75ZM1194.68 1021C1186.35 1021 1178.77 1019.67 1171.93 1017C1165.1 1014.17 1159.18 1010.25 1154.18 1005.25C1149.35 1000.08 1145.52 993.833 1142.68 986.5C1140.02 979.167 1138.68 970.917 1138.68 961.75C1138.68 951.417 1140.35 941.583 1143.68 932.25C1147.02 922.917 1151.68 914.75 1157.68 907.75C1163.85 900.75 1171.27 895.25 1179.93 891.25C1188.6 887.083 1198.27 885 1208.93 885C1216.1 885 1222.52 886.083 1228.18 888.25C1233.85 890.417 1238.6 893.25 1242.43 896.75C1246.43 900.25 1249.43 904.333 1251.43 909C1253.6 913.667 1254.68 918.5 1254.68 923.5C1254.68 932.833 1252.43 940.417 1247.93 946.25C1243.6 952.083 1238.1 956.75 1231.43 960.25C1224.77 963.583 1217.43 965.917 1209.43 967.25C1201.43 968.417 1193.85 969 1186.68 969C1182.18 969 1177.68 968.833 1173.18 968.5C1168.85 968 1165.02 967.5 1161.68 967C1163.02 978 1166.85 986.417 1173.18 992.25C1179.68 998.083 1188.1 1001 1198.43 1001C1206.77 1001 1214.18 999.917 1220.68 997.75C1227.18 995.583 1232.68 993.417 1237.18 991.25L1239.18 1011.25C1234.18 1013.58 1227.85 1015.83 1220.18 1018C1212.68 1020 1204.18 1021 1194.68 1021ZM1207.18 904C1201.35 904 1195.85 905.167 1190.68 907.5C1185.68 909.667 1181.18 912.75 1177.18 916.75C1173.35 920.75 1170.1 925.5 1167.43 931C1164.93 936.5 1163.18 942.5 1162.18 949C1166.02 949.833 1169.85 950.417 1173.68 950.75C1177.52 951.083 1181.85 951.25 1186.68 951.25C1200.85 951.25 1211.93 949.333 1219.93 945.5C1228.1 941.5 1232.18 934.75 1232.18 925.25C1232.18 919.417 1229.85 914.417 1225.18 910.25C1220.68 906.083 1214.68 904 1207.18 904ZM1388.58 1019.25C1379.58 1019.25 1372.66 1017.08 1367.83 1012.75C1363.16 1008.25 1360.83 1001.25 1360.83 991.75C1355.99 999.75 1349.91 1006.67 1342.58 1012.5C1335.24 1018.17 1326.74 1021 1317.08 1021C1310.74 1021 1304.66 1019.75 1298.83 1017.25C1293.16 1014.75 1288.08 1011.17 1283.58 1006.5C1279.24 1001.83 1275.74 996.167 1273.08 989.5C1270.58 982.667 1269.33 975.083 1269.33 966.75C1269.33 954.083 1271.24 942.667 1275.08 932.5C1279.08 922.333 1284.16 913.75 1290.33 906.75C1296.66 899.75 1303.74 894.417 1311.58 890.75C1319.41 886.917 1327.33 885 1335.33 885C1344.33 885 1351.99 887.167 1358.33 891.5C1364.66 895.833 1369.58 901.167 1373.08 907.5L1386.33 833H1408.83L1382.33 982.75C1382.16 983.583 1381.99 984.583 1381.83 985.75C1381.83 986.75 1381.83 987.833 1381.83 989C1381.83 993.667 1383.16 997 1385.83 999C1388.49 1000.83 1391.99 1001.75 1396.33 1001.75L1388.58 1019.25ZM1323.08 1001C1327.74 1001 1332.33 999.917 1336.83 997.75C1341.33 995.417 1345.41 992.167 1349.08 988C1352.91 983.667 1356.16 978.5 1358.83 972.5C1361.66 966.5 1363.74 959.833 1365.08 952.5L1369.58 926.75C1366.24 919.75 1361.74 914.333 1356.08 910.5C1350.41 906.5 1344.16 904.5 1337.33 904.5C1331.49 904.5 1325.83 905.833 1320.33 908.5C1314.99 911.167 1310.24 915.083 1306.08 920.25C1301.91 925.25 1298.58 931.417 1296.08 938.75C1293.58 946.083 1292.33 954.333 1292.33 963.5C1292.33 969.667 1293.16 975.083 1294.83 979.75C1296.66 984.417 1298.99 988.333 1301.83 991.5C1304.66 994.667 1307.91 997.083 1311.58 998.75C1315.24 1000.25 1319.08 1001 1323.08 1001ZM1442.43 1018H1419.93L1442.68 888H1465.18L1442.43 1018ZM1459.18 865.75C1454.52 865.75 1450.93 864.417 1448.43 861.75C1446.1 858.917 1444.93 855.667 1444.93 852C1444.93 846.667 1446.6 842.417 1449.93 839.25C1453.27 835.917 1457.43 834.25 1462.43 834.25C1467.1 834.25 1470.6 835.667 1472.93 838.5C1475.43 841.167 1476.68 844.333 1476.68 848C1476.68 853.333 1475.02 857.667 1471.68 861C1468.35 864.167 1464.18 865.75 1459.18 865.75ZM1483.65 966.75C1483.65 954.75 1485.65 943.75 1489.65 933.75C1493.82 923.583 1499.57 914.917 1506.9 907.75C1514.24 900.583 1522.99 895 1533.15 891C1543.32 887 1554.4 885 1566.4 885C1576.24 885 1584.82 886 1592.15 888C1599.65 890 1605.82 892 1610.65 894L1594.9 982.75C1594.74 983.583 1594.57 984.583 1594.4 985.75C1594.4 986.75 1594.4 987.833 1594.4 989C1594.4 993.667 1595.74 997 1598.4 999C1601.07 1000.83 1604.57 1001.75 1608.9 1001.75L1601.15 1019.25C1592.15 1019.25 1585.24 1017.08 1580.4 1012.75C1575.74 1008.42 1573.4 1001.5 1573.4 992C1568.74 1000 1562.82 1006.83 1555.65 1012.5C1548.65 1018.17 1540.4 1021 1530.9 1021C1524.74 1021 1518.82 1019.75 1513.15 1017.25C1507.49 1014.75 1502.4 1011.17 1497.9 1006.5C1493.57 1001.83 1490.07 996.167 1487.4 989.5C1484.9 982.667 1483.65 975.083 1483.65 966.75ZM1585.9 907.25C1582.74 906.25 1579.4 905.5 1575.9 905C1572.57 904.333 1568.49 904 1563.65 904C1554.99 904 1547.15 905.5 1540.15 908.5C1533.15 911.5 1527.15 915.667 1522.15 921C1517.15 926.333 1513.32 932.667 1510.65 940C1507.99 947.333 1506.65 955.333 1506.65 964C1506.65 970 1507.49 975.333 1509.15 980C1510.99 984.5 1513.32 988.333 1516.15 991.5C1518.99 994.667 1522.15 997.083 1525.65 998.75C1529.32 1000.25 1533.07 1001 1536.9 1001C1541.9 1001 1546.65 999.667 1551.15 997C1555.82 994.333 1559.99 990.583 1563.65 985.75C1567.32 980.75 1570.49 974.917 1573.15 968.25C1575.82 961.417 1577.82 954 1579.15 946L1585.9 907.25Z" fill="white" fill-opacity="0.15"/>
<g opacity="0.2443">
<path opacity="0.2443" d="M1681.6 464.883L1624.74 420.234L1678.84 405.657L1681.6 464.883ZM1627.36 420.759L1680.42 462.388L1677.79 407.102L1627.36 420.759Z" fill="white"/>
</g>
<g opacity="0.5038">
<path opacity="0.5038" d="M1761.83 322.138L1771.55 230.608L1772.34 231.396L1846.4 298.763L1761.83 322.138ZM1772.47 232.972L1763.15 320.562L1844.17 298.107L1772.47 232.972Z" fill="white"/>
</g>
<g opacity="0.8777">
<path opacity="0.8777" d="M1845.88 299.551L1771.03 231.659L1850.87 192.263V240.588L1845.88 299.551ZM1773.13 231.921L1844.96 297.187L1849.82 240.457V194.101L1773.13 231.921Z" fill="white"/>
</g>
<g opacity="0.5761">
<path opacity="0.5761" d="M1415.81 426.274L1414.76 425.749L1433.53 388.191L1443.38 384.908L1415.81 426.274ZM1434.32 389.111L1419.88 418.001L1440.63 387.01L1434.32 389.111Z" fill="white"/>
</g>
<g opacity="0.1811">
<path opacity="0.1811" d="M1382.85 375.585L1315.48 368.1L1351.85 323.188L1382.85 375.585ZM1317.71 367.312L1380.61 374.272L1351.72 325.29L1317.71 367.312Z" fill="white"/>
</g>
<g opacity="0.6975">
<path opacity="0.6975" d="M1653.49 738.29L1652.84 737.765L1609.9 697.581L1666.89 704.016L1653.49 738.29ZM1613.31 699.026L1653.1 736.321L1665.44 704.935L1613.31 699.026Z" fill="white"/>
</g>
<g opacity="0.054651">
<path opacity="0.054651" d="M1678.71 407.233L1656.52 396.465L1656.78 395.94L1701.3 303.359L1678.71 407.233ZM1658.09 395.94L1677.92 405.526L1698.01 312.814L1658.09 395.94Z" fill="white"/>
</g>
<g opacity="0.341">
<path opacity="0.341" d="M1524.54 315.441L1566.17 239.144L1572.86 290.49L1572.47 290.621L1524.54 315.441ZM1565.51 242.821L1527.3 312.683L1571.68 289.833L1565.51 242.821Z" fill="white"/>
</g>
<g opacity="0.4395">
<path opacity="0.4395" d="M1566.3 241.77L1507.73 214.85L1578.77 202.506L1566.3 241.77ZM1511.54 215.375L1565.51 240.194L1577.07 204.081L1511.54 215.375Z" fill="white"/>
</g>
<g opacity="0.8687">
<path opacity="0.8687" d="M1352.25 325.027L1298.28 307.561L1298.67 306.905L1369.19 208.152L1352.25 325.027ZM1300.11 307.036L1351.33 323.582L1367.35 212.749L1300.11 307.036Z" fill="white"/>
</g>
<g opacity="0.6378">
<path opacity="0.6378" d="M1651.39 740.523L1666.1 703.228L1672.8 714.39L1651.39 740.523ZM1666.23 705.723L1655.2 733.957L1671.36 714.127L1666.23 705.723Z" fill="white"/>
</g>
<g opacity="0.6534">
<path opacity="0.6534" d="M1808.19 743.018L1712.98 720.956L1820.93 691.54L1808.19 743.018ZM1717.71 720.825L1807.4 741.573L1819.48 693.247L1717.71 720.825Z" fill="white"/>
</g>
<g opacity="0.4075">
<path opacity="0.4075" d="M1695.52 718.329L1671.62 714.784L1664.66 703.096L1695.52 718.329ZM1672.4 713.733L1688.43 716.097L1667.68 705.854L1672.4 713.733Z" fill="white"/>
</g>
<g opacity="0.1929">
<path opacity="0.1929" d="M1636.29 595.152L1560.91 534.351L1641.94 514.915L1636.29 595.152ZM1563.41 535.007L1635.37 592.919L1640.76 516.491L1563.41 535.007Z" fill="white"/>
</g>
<g opacity="0.1666">
<path opacity="0.1666" d="M1838.26 618.133L1850.87 579.131V612.88L1838.26 618.133ZM1849.69 586.485L1840.1 616.163L1849.69 612.223V586.485Z" fill="white"/>
</g>
<g opacity="0.3403">
<path opacity="0.3403" d="M1509.96 215.769L1431.3 211.173L1468.33 192H1520.21L1509.96 215.769ZM1435.64 210.253L1509.31 214.587L1518.5 193.182H1468.47L1435.64 210.253Z" fill="white"/>
</g>
<g opacity="0.9176">
<path opacity="0.9176" d="M1432.35 389.767L1460.59 352.998L1461.51 353.654L1442.47 386.484L1432.35 389.767ZM1455.99 360.877L1435.51 387.535L1441.55 385.565L1455.99 360.877Z" fill="white"/>
</g>
<g opacity="0.1984">
<path opacity="0.1984" d="M1460.19 354.574L1471.62 300.864L1527.56 313.865L1460.19 354.574ZM1472.54 302.177L1461.9 352.21L1524.54 314.259L1472.54 302.177Z" fill="white"/>
</g>
<g opacity="0.2669">
<path opacity="0.2669" d="M1526.9 315.966L1470.83 253.195L1510.09 214.062L1526.9 315.966ZM1472.41 253.195L1525.07 312.158L1509.31 216.294L1472.41 253.195Z" fill="white"/>
</g>
<g opacity="0.7806">
<path opacity="0.7806" d="M1698.8 309.925L1713.11 224.304L1773.26 231.396L1772.47 232.184L1698.8 309.925ZM1714.03 225.486L1700.51 306.379L1770.9 232.315L1714.03 225.486Z" fill="white"/>
</g>
<g opacity="0.9353">
<path opacity="0.9353" d="M1713.51 226.668L1703.13 192H1726.77L1713.51 226.668ZM1704.71 193.182L1713.64 223.123L1725.07 193.182H1704.71Z" fill="white"/>
</g>
<g opacity="0.4956">
<path opacity="0.4956" d="M1812.92 742.886L1720.21 742.493L1714.56 720.037L1812.92 742.886ZM1721.12 741.442L1802.67 741.705L1716.13 721.613L1721.12 741.442Z" fill="white"/>
</g>
<g opacity="0.6271">
<path opacity="0.6271" d="M1390.99 483.399L1415.02 425.093L1458.09 456.741L1390.99 483.399ZM1415.54 426.931L1393.09 481.429L1455.73 456.478L1415.54 426.931Z" fill="white"/>
</g>
<g opacity="0.7557">
<path opacity="0.7557" d="M1456.78 458.316L1441.41 385.434L1492.63 386.09L1456.78 458.316ZM1442.73 386.616L1457.17 454.771L1490.66 387.141L1442.73 386.616Z" fill="white"/>
</g>
<g opacity="0.3556">
<path opacity="0.3556" d="M1657.3 397.647L1606.61 290.096L1700.51 307.693L1657.3 397.647ZM1608.58 291.672L1657.3 395.02L1698.8 308.481L1608.58 291.672Z" fill="white"/>
</g>
<g opacity="0.058722">
<path opacity="0.058722" d="M1553.43 403.687L1571.95 289.571L1608.58 290.358L1553.43 403.687ZM1572.87 290.752L1555.79 396.202L1606.75 291.54L1572.87 290.752Z" fill="white"/>
</g>
<g opacity="0.5999">
<path opacity="0.5999" d="M1641.54 517.148L1608.32 464.226L1647.98 487.863L1641.54 517.148ZM1611.87 467.64L1641.02 514.127L1646.67 488.257L1611.87 467.64Z" fill="white"/>
</g>
<g opacity="0.7881">
<path opacity="0.7881" d="M1642.46 516.491L1581.93 503.622L1610.03 464.883L1642.46 516.491ZM1583.9 502.834L1640.1 514.784L1610.03 466.852L1583.9 502.834Z" fill="white"/>
</g>
<g opacity="0.397">
<path opacity="0.397" d="M1651.39 491.146L1609.5 466.327L1608.45 449.781L1651.39 491.146ZM1610.69 465.67L1643.52 485.106L1609.9 452.67L1610.69 465.67Z" fill="white"/>
</g>
<g opacity="0.1352">
<path opacity="0.1352" d="M1545.42 489.57L1609.76 450.175L1610.68 466.327L1545.42 489.57ZM1608.71 452.144L1555.4 484.843L1609.5 465.539L1608.71 452.144Z" fill="white"/>
</g>
<g opacity="0.302">
<path opacity="0.302" d="M1850.87 649.781L1845.09 648.861L1850.87 640.982V649.781ZM1847.19 648.073L1849.69 648.467V644.528L1847.19 648.073Z" fill="white"/>
</g>
<g opacity="0.5835">
<path opacity="0.5835" d="M1765.51 848.599L1750.02 789.242L1788.36 811.436L1765.51 848.599ZM1751.85 791.606L1765.91 845.71L1786.79 811.698L1751.85 791.606Z" fill="white"/>
</g>
<g opacity="0.7245">
<path opacity="0.7245" d="M1667.15 705.198L1610.42 698.763L1645.22 662.65L1667.15 705.198ZM1612.92 697.844L1665.18 703.753L1644.96 664.489L1612.92 697.844Z" fill="white"/>
</g>
<g opacity="0.6437">
<path opacity="0.6437" d="M1610.55 700.339L1619.48 668.297L1646.8 662.65L1610.55 700.339ZM1620.4 669.216L1612.92 696.268L1643.51 664.489L1620.4 669.216Z" fill="white"/>
</g>
<g opacity="0.593">
<path opacity="0.593" d="M1850.87 414.85L1835.9 411.961L1850.87 388.98V414.85ZM1837.87 411.173L1849.69 413.405V392.788L1837.87 411.173Z" fill="white"/>
</g>
<g opacity="0.4081">
<path opacity="0.4081" d="M1840.89 618.001L1730.32 596.465L1781.93 559.039L1782.32 559.433L1840.89 618.001ZM1733.07 595.808L1837.34 616.163L1781.66 560.483L1733.07 595.808Z" fill="white"/>
</g>
<g opacity="0.9412">
<path opacity="0.9412" d="M1778.38 499.157L1754.35 430.345L1844.04 458.054L1778.38 499.157ZM1756.19 432.184L1779.04 497.45L1841.28 458.448L1756.19 432.184Z" fill="white"/>
</g>
<g opacity="0.2546">
<path opacity="0.2546" d="M1381.66 376.11L1350.93 323.976L1430.25 295.743L1381.66 376.11ZM1352.64 324.502L1381.66 373.747L1427.62 297.712L1352.64 324.502Z" fill="white"/>
</g>
<g opacity="0.5939">
<path opacity="0.5939" d="M1472.93 302.177L1427.76 297.187L1459.8 263.963L1472.93 302.177ZM1430.25 296.268L1471.22 300.733L1459.27 266.064L1430.25 296.268Z" fill="white"/>
</g>
<g opacity="0.7674">
<path opacity="0.7674" d="M1269.91 213.011L1251 192H1264.26L1269.91 213.011ZM1253.63 193.182L1267.55 208.678L1263.48 193.182H1253.63Z" fill="white"/>
</g>
<g opacity="0.2255">
<path opacity="0.2255" d="M1716 721.481L1691.05 717.673L1708.91 682.479L1716 721.481ZM1692.89 716.754L1714.69 720.037L1708.52 685.894L1692.89 716.754Z" fill="white"/>
</g>
<g opacity="0.1251">
<path opacity="0.1251" d="M1692.23 718.067L1664.79 704.541L1709.96 683.136L1692.23 718.067ZM1667.55 704.541L1691.71 716.491L1707.34 685.5L1667.55 704.541Z" fill="white"/>
</g>
<g opacity="0.2913">
<path opacity="0.2913" d="M1665.97 705.198L1644.04 662.519L1710.36 684.055L1665.97 705.198ZM1646.27 664.489L1666.49 703.622L1707.2 684.318L1646.27 664.489Z" fill="white"/>
</g>
<g opacity="0.7893">
<path opacity="0.7893" d="M1708.39 687.863L1701.29 583.858L1732.42 595.808L1708.39 687.863ZM1702.48 585.565L1709.04 680.641L1730.97 596.465L1702.48 585.565Z" fill="white"/>
</g>
<g opacity="0.7612">
<path opacity="0.7612" d="M1795.85 803.95L1795.71 802.768L1851 790.818V797.647L1795.85 803.95ZM1849.69 792.263L1807.01 801.455L1849.69 796.596V792.263Z" fill="white"/>
</g>
<g opacity="0.3186">
<path opacity="0.3186" d="M1850.87 697.975L1819.22 692.854L1846.4 646.892L1850.74 671.843L1850.87 697.975ZM1821.06 691.935L1849.69 696.531V671.843L1845.88 650.044L1821.06 691.935Z" fill="white"/>
</g>
<g opacity="0.769">
<path opacity="0.769" d="M1751.99 791.081L1694.34 787.535L1720.47 740.917L1751.99 791.081ZM1696.31 786.353L1749.88 789.636L1720.73 743.018L1696.31 786.353Z" fill="white"/>
</g>
<g opacity="0.7914">
<path opacity="0.7914" d="M1694.99 787.273L1650.08 738.816L1653.36 736.452L1695.78 786.485L1694.99 787.273ZM1651.79 739.078L1677.66 767.049L1653.1 738.159L1651.79 739.078Z" fill="white"/>
</g>
<g opacity="0.7235">
<path opacity="0.7235" d="M1609.11 682.611L1588.49 660.024L1620.93 668.297L1609.11 682.611ZM1592.04 662.125L1609.11 680.772L1618.96 668.953L1592.04 662.125Z" fill="white"/>
</g>
<g opacity="0.1424">
<path opacity="0.1424" d="M1812.79 349.321L1845.22 297.45L1850.74 304.804V319.774L1812.79 349.321ZM1845.35 299.42L1817.25 344.331L1849.69 318.986V305.066L1845.35 299.42Z" fill="white"/>
</g>
<g opacity="0.3504">
<path opacity="0.3504" d="M1415.54 427.325L1380.22 373.615L1425.92 393.445L1415.54 427.325ZM1383.24 376.242L1415.15 424.699L1424.47 394.233L1383.24 376.242Z" fill="white"/>
</g>
<g opacity="0.5955">
<path opacity="0.5955" d="M1425.13 394.495L1381.4 375.585L1381.79 374.534L1435.37 388.586L1425.13 394.495ZM1388.89 377.423L1425.13 393.182L1432.48 388.848L1388.89 377.423Z" fill="white"/>
</g>
<g opacity="0.8014">
<path opacity="0.8014" d="M1610.55 291.541L1571.16 290.753L1581.8 278.934L1610.55 291.541ZM1573.65 289.571L1604.78 290.227L1582.06 280.247L1573.65 289.571Z" fill="white"/>
</g>
<g opacity="0.38">
<path opacity="0.38" d="M1571.95 291.409L1564.72 236.649L1582.45 279.59L1571.95 291.409ZM1567.09 245.316L1572.86 288.914L1581.27 279.59L1567.09 245.316Z" fill="white"/>
</g>
<g opacity="0.9285">
<path opacity="0.9285" d="M1640.1 518.724L1647.45 485.368L1650.87 502.309L1640.1 518.724ZM1647.32 490.884L1642.46 512.683L1649.42 501.915L1647.32 490.884Z" fill="white"/>
</g>
<g opacity="0.9356">
<path opacity="0.9356" d="M1701.43 585.04L1640.62 515.703L1650.21 500.995L1702.35 584.383L1701.43 585.04ZM1642.07 515.703L1697.62 578.999L1650.21 503.096L1642.07 515.703Z" fill="white"/>
</g>
<rect x="1423" y="873" width="229" height="31" fill="#FFEEBF"/>
<rect x="911.133" y="639.117" width="6" height="6" rx="3" transform="rotate(-89.9262 911.133 639.117)" fill="white"/>
<rect x="911.166" y="613.117" width="6" height="6" rx="3" transform="rotate(-89.9262 911.166 613.117)" fill="white"/>
<rect x="885.133" y="639.084" width="6" height="6" rx="3" transform="rotate(-89.9262 885.133 639.084)" fill="white"/>
<rect x="885.166" y="613.084" width="6" height="6" rx="3" transform="rotate(-89.9262 885.166 613.084)" fill="white"/>
<rect x="820.1" y="665.125" width="6" height="6" rx="3" transform="rotate(-89.9262 820.1 665.125)" fill="white"/>
<rect x="846.066" y="691.158" width="6" height="6" rx="3" transform="rotate(-89.9262 846.066 691.158)" fill="white"/>
<rect x="846.1" y="665.159" width="6" height="6" rx="3" transform="rotate(-89.9262 846.1 665.159)" fill="white"/>
<rect x="872.033" y="717.192" width="6" height="6" rx="3" transform="rotate(-89.9262 872.033 717.192)" fill="white"/>
<rect x="872.066" y="691.192" width="6" height="6" rx="3" transform="rotate(-89.9262 872.066 691.192)" fill="white"/>
<rect x="872.1" y="665.192" width="6" height="6" rx="3" transform="rotate(-89.9262 872.1 665.192)" fill="white"/>
<rect x="898" y="743.225" width="6" height="6" rx="3" transform="rotate(-89.9262 898 743.225)" fill="white"/>
<rect x="898.033" y="717.225" width="6" height="6" rx="3" transform="rotate(-89.9262 898.033 717.225)" fill="white"/>
<rect x="898.066" y="691.226" width="6" height="6" rx="3" transform="rotate(-89.9262 898.066 691.226)" fill="white"/>
<rect x="898.1" y="665.226" width="6" height="6" rx="3" transform="rotate(-89.9262 898.1 665.226)" fill="white"/>
<rect x="924.033" y="717.259" width="6" height="6" rx="3" transform="rotate(-89.9262 924.033 717.259)" fill="white"/>
<rect x="924.066" y="691.259" width="6" height="6" rx="3" transform="rotate(-89.9262 924.066 691.259)" fill="white"/>
<rect x="924.1" y="665.259" width="6" height="6" rx="3" transform="rotate(-89.9262 924.1 665.259)" fill="white"/>
<rect x="950.066" y="691.293" width="6" height="6" rx="3" transform="rotate(-89.9262 950.066 691.293)" fill="white"/>
<rect x="950.1" y="665.293" width="6" height="6" rx="3" transform="rotate(-89.9262 950.1 665.293)" fill="white"/>
<rect x="976.1" y="665.326" width="6" height="6" rx="3" transform="rotate(-89.9262 976.1 665.326)" fill="white"/>
<g opacity="0.2443">
<path opacity="0.2443" d="M1717.6 338.883L1660.74 294.234L1714.84 279.657L1717.6 338.883ZM1663.36 294.759L1716.42 336.388L1713.79 281.102L1663.36 294.759Z" fill="#F39200"/>
</g>
<g opacity="0.5038">
<path opacity="0.5038" d="M1797.83 196.138L1807.55 104.608L1808.34 105.396L1882.4 172.763L1797.83 196.138ZM1808.47 106.972L1799.15 194.562L1880.17 172.107L1808.47 106.972Z" fill="#F39200"/>
</g>
<g opacity="0.8777">
<path opacity="0.8777" d="M1881.88 173.551L1807.03 105.659L1886.87 66.2627V114.588L1881.88 173.551ZM1809.13 105.921L1880.96 171.187L1885.82 114.457V68.1012L1809.13 105.921Z" fill="#F39200"/>
</g>
<g opacity="0.5761">
<path opacity="0.5761" d="M1451.81 300.274L1450.76 299.749L1469.53 262.191L1479.38 258.908L1451.81 300.274ZM1470.32 263.111L1455.88 292.001L1476.63 261.01L1470.32 263.111Z" fill="#F39200"/>
</g>
<g opacity="0.1811">
<path opacity="0.1811" d="M1418.85 249.585L1351.48 242.1L1387.85 197.188L1418.85 249.585ZM1353.71 241.312L1416.61 248.272L1387.72 199.29L1353.71 241.312Z" fill="#F39200"/>
</g>
<g opacity="0.6975">
<path opacity="0.6975" d="M1689.49 612.29L1688.84 611.765L1645.9 571.581L1702.89 578.016L1689.49 612.29ZM1649.31 573.026L1689.1 610.321L1701.44 578.935L1649.31 573.026Z" fill="#F39200"/>
</g>
<g opacity="0.054651">
<path opacity="0.054651" d="M1714.71 281.233L1692.52 270.465L1692.78 269.94L1737.3 177.359L1714.71 281.233ZM1694.09 269.94L1713.92 279.526L1734.01 186.814L1694.09 269.94Z" fill="#F39200"/>
</g>
<g opacity="0.341">
<path opacity="0.341" d="M1560.54 189.441L1602.17 113.144L1608.86 164.49L1608.47 164.621L1560.54 189.441ZM1601.51 116.821L1563.3 186.683L1607.68 163.833L1601.51 116.821Z" fill="#F39200"/>
</g>
<g opacity="0.4395">
<path opacity="0.4395" d="M1602.3 115.77L1543.73 88.8497L1614.77 76.5056L1602.3 115.77ZM1547.54 89.375L1601.51 114.194L1613.07 78.0815L1547.54 89.375Z" fill="#F39200"/>
</g>
<g opacity="0.8687">
<path opacity="0.8687" d="M1388.25 199.027L1334.28 181.561L1334.67 180.905L1405.19 82.1523L1388.25 199.027ZM1336.11 181.036L1387.33 197.582L1403.35 86.7485L1336.11 181.036Z" fill="#F39200"/>
</g>
<g opacity="0.6378">
<path opacity="0.6378" d="M1687.39 614.523L1702.1 577.228L1708.8 588.39L1687.39 614.523ZM1702.23 579.723L1691.2 607.957L1707.36 588.127L1702.23 579.723Z" fill="#F39200"/>
</g>
<g opacity="0.6534">
<path opacity="0.6534" d="M1844.19 617.018L1748.98 594.956L1856.93 565.54L1844.19 617.018ZM1753.71 594.825L1843.4 615.573L1855.48 567.247L1753.71 594.825Z" fill="#F39200"/>
</g>
<g opacity="0.4075">
<path opacity="0.4075" d="M1731.52 592.329L1707.62 588.784L1700.66 577.096L1731.52 592.329ZM1708.4 587.733L1724.43 590.097L1703.68 579.854L1708.4 587.733Z" fill="#F39200"/>
</g>
<g opacity="0.1929">
<path opacity="0.1929" d="M1672.29 469.152L1596.91 408.351L1677.94 388.915L1672.29 469.152ZM1599.41 409.007L1671.37 466.919L1676.76 390.491L1599.41 409.007Z" fill="#F39200"/>
</g>
<g opacity="0.1666">
<path opacity="0.1666" d="M1874.26 492.133L1886.87 453.131V486.88L1874.26 492.133ZM1885.69 460.485L1876.1 490.163L1885.69 486.223V460.485Z" fill="#F39200"/>
</g>
<g opacity="0.3403">
<path opacity="0.3403" d="M1545.96 89.7689L1467.3 85.1727L1504.33 66L1556.21 66L1545.96 89.7689ZM1471.64 84.2534L1545.31 88.587L1554.5 67.1819L1504.47 67.1819L1471.64 84.2534Z" fill="#F39200"/>
</g>
<g opacity="0.9176">
<path opacity="0.9176" d="M1468.35 263.767L1496.59 226.998L1497.51 227.654L1478.47 260.484L1468.35 263.767ZM1491.99 234.877L1471.51 261.535L1477.55 259.565L1491.99 234.877Z" fill="#F39200"/>
</g>
<g opacity="0.1984">
<path opacity="0.1984" d="M1496.19 228.574L1507.62 174.864L1563.56 187.865L1496.19 228.574ZM1508.54 176.177L1497.9 226.21L1560.54 188.259L1508.54 176.177Z" fill="#F39200"/>
</g>
<g opacity="0.2669">
<path opacity="0.2669" d="M1562.9 189.966L1506.83 127.195L1546.09 88.0618L1562.9 189.966ZM1508.41 127.195L1561.07 186.158L1545.31 90.2942L1508.41 127.195Z" fill="#F39200"/>
</g>
<g opacity="0.7806">
<path opacity="0.7806" d="M1734.8 183.925L1749.11 98.3044L1809.26 105.396L1808.47 106.184L1734.8 183.925ZM1750.03 99.4863L1736.51 180.379L1806.9 106.315L1750.03 99.4863Z" fill="#F39200"/>
</g>
<g opacity="0.9353">
<path opacity="0.9353" d="M1749.51 100.668L1739.13 66L1762.77 66L1749.51 100.668ZM1740.71 67.1819L1749.64 97.1228L1761.07 67.1819L1740.71 67.1819Z" fill="#F39200"/>
</g>
<g opacity="0.4956">
<path opacity="0.4956" d="M1848.92 616.886L1756.21 616.493L1750.56 594.037L1848.92 616.886ZM1757.12 615.442L1838.67 615.705L1752.13 595.613L1757.12 615.442Z" fill="#F39200"/>
</g>
<g opacity="0.6271">
<path opacity="0.6271" d="M1426.99 357.399L1451.02 299.093L1494.09 330.741L1426.99 357.399ZM1451.54 300.931L1429.09 355.429L1491.73 330.478L1451.54 300.931Z" fill="#F39200"/>
</g>
<g opacity="0.7557">
<path opacity="0.7557" d="M1492.78 332.316L1477.41 259.434L1528.63 260.09L1492.78 332.316ZM1478.73 260.616L1493.17 328.771L1526.66 261.141L1478.73 260.616Z" fill="#F39200"/>
</g>
<g opacity="0.3556">
<path opacity="0.3556" d="M1693.3 271.647L1642.61 164.096L1736.51 181.693L1693.3 271.647ZM1644.58 165.672L1693.3 269.02L1734.8 182.481L1644.58 165.672Z" fill="#F39200"/>
</g>
<g opacity="0.058722">
<path opacity="0.058722" d="M1589.43 277.687L1607.95 163.571L1644.58 164.358L1589.43 277.687ZM1608.87 164.752L1591.79 270.202L1642.75 165.54L1608.87 164.752Z" fill="#F39200"/>
</g>
<g opacity="0.5999">
<path opacity="0.5999" d="M1677.54 391.148L1644.32 338.226L1683.98 361.863L1677.54 391.148ZM1647.87 341.64L1677.02 388.127L1682.67 362.257L1647.87 341.64Z" fill="#F39200"/>
</g>
<g opacity="0.7881">
<path opacity="0.7881" d="M1678.46 390.491L1617.93 377.622L1646.03 338.883L1678.46 390.491ZM1619.9 376.834L1676.1 388.784L1646.03 340.852L1619.9 376.834Z" fill="#F39200"/>
</g>
<g opacity="0.397">
<path opacity="0.397" d="M1687.39 365.146L1645.5 340.327L1644.45 323.781L1687.39 365.146ZM1646.69 339.67L1679.52 359.106L1645.9 326.67L1646.69 339.67Z" fill="#F39200"/>
</g>
<g opacity="0.1352">
<path opacity="0.1352" d="M1581.42 363.57L1645.76 324.175L1646.68 340.327L1581.42 363.57ZM1644.71 326.144L1591.4 358.843L1645.5 339.539L1644.71 326.144Z" fill="#F39200"/>
</g>
<g opacity="0.302">
<path opacity="0.302" d="M1886.87 523.781L1881.09 522.861L1886.87 514.982V523.781ZM1883.19 522.073L1885.69 522.467V518.528L1883.19 522.073Z" fill="#F39200"/>
</g>
<g opacity="0.5835">
<path opacity="0.5835" d="M1801.51 722.599L1786.02 663.242L1824.36 685.436L1801.51 722.599ZM1787.85 665.606L1801.91 719.71L1822.79 685.698L1787.85 665.606Z" fill="#F39200"/>
</g>
<g opacity="0.7245">
<path opacity="0.7245" d="M1703.15 579.198L1646.42 572.763L1681.22 536.65L1703.15 579.198ZM1648.92 571.844L1701.18 577.753L1680.96 538.489L1648.92 571.844Z" fill="#F39200"/>
</g>
<g opacity="0.6437">
<path opacity="0.6437" d="M1646.55 574.339L1655.48 542.297L1682.8 536.65L1646.55 574.339ZM1656.4 543.216L1648.92 570.268L1679.51 538.489L1656.4 543.216Z" fill="#F39200"/>
</g>
<g opacity="0.593">
<path opacity="0.593" d="M1886.87 288.85L1871.9 285.961L1886.87 262.98V288.85ZM1873.87 285.173L1885.69 287.405V266.788L1873.87 285.173Z" fill="#F39200"/>
</g>
<g opacity="0.4081">
<path opacity="0.4081" d="M1876.89 492.001L1766.32 470.465L1817.93 433.039L1818.32 433.433L1876.89 492.001ZM1769.07 469.808L1873.34 490.163L1817.66 434.483L1769.07 469.808Z" fill="#F39200"/>
</g>
<g opacity="0.9412">
<path opacity="0.9412" d="M1814.38 373.157L1790.35 304.345L1880.04 332.054L1814.38 373.157ZM1792.19 306.184L1815.04 371.45L1877.28 332.448L1792.19 306.184Z" fill="#F39200"/>
</g>
<g opacity="0.2546">
<path opacity="0.2546" d="M1417.66 250.11L1386.93 197.976L1466.25 169.743L1417.66 250.11ZM1388.64 198.502L1417.66 247.747L1463.62 171.712L1388.64 198.502Z" fill="#F39200"/>
</g>
<g opacity="0.5939">
<path opacity="0.5939" d="M1508.93 176.177L1463.76 171.187L1495.8 137.963L1508.93 176.177ZM1466.25 170.268L1507.22 174.733L1495.27 140.064L1466.25 170.268Z" fill="#F39200"/>
</g>
<g opacity="0.7674">
<path opacity="0.7674" d="M1305.91 87.0112L1287 66H1300.26L1305.91 87.0112ZM1289.63 67.1819L1303.55 82.6776L1299.48 67.1819H1289.63Z" fill="#F39200"/>
</g>
<g opacity="0.2255">
<path opacity="0.2255" d="M1752 595.481L1727.05 591.673L1744.91 556.479L1752 595.481ZM1728.89 590.754L1750.69 594.037L1744.52 559.894L1728.89 590.754Z" fill="#F39200"/>
</g>
<g opacity="0.1251">
<path opacity="0.1251" d="M1728.23 592.067L1700.79 578.541L1745.96 557.136L1728.23 592.067ZM1703.55 578.541L1727.71 590.491L1743.34 559.5L1703.55 578.541Z" fill="#F39200"/>
</g>
<g opacity="0.2913">
<path opacity="0.2913" d="M1701.97 579.198L1680.04 536.519L1746.36 558.055L1701.97 579.198ZM1682.27 538.489L1702.49 577.622L1743.2 558.318L1682.27 538.489Z" fill="#F39200"/>
</g>
<g opacity="0.7893">
<path opacity="0.7893" d="M1744.39 561.863L1737.29 457.858L1768.42 469.808L1744.39 561.863ZM1738.48 459.565L1745.04 554.641L1766.97 470.465L1738.48 459.565Z" fill="#F39200"/>
</g>
<g opacity="0.7612">
<path opacity="0.7612" d="M1831.85 677.95L1831.71 676.768L1887 664.818V671.647L1831.85 677.95ZM1885.69 666.263L1843.01 675.455L1885.69 670.596V666.263Z" fill="#F39200"/>
</g>
<g opacity="0.3186">
<path opacity="0.3186" d="M1886.87 571.975L1855.22 566.854L1882.4 520.892L1886.74 545.843L1886.87 571.975ZM1857.06 565.935L1885.69 570.531V545.843L1881.88 524.044L1857.06 565.935Z" fill="#F39200"/>
</g>
<g opacity="0.769">
<path opacity="0.769" d="M1787.99 665.081L1730.34 661.535L1756.47 614.917L1787.99 665.081ZM1732.31 660.353L1785.88 663.636L1756.73 617.018L1732.31 660.353Z" fill="#F39200"/>
</g>
<g opacity="0.7914">
<path opacity="0.7914" d="M1730.99 661.273L1686.08 612.816L1689.36 610.452L1731.78 660.485L1730.99 661.273ZM1687.79 613.078L1713.66 641.049L1689.1 612.159L1687.79 613.078Z" fill="#F39200"/>
</g>
<g opacity="0.7235">
<path opacity="0.7235" d="M1645.11 556.611L1624.49 534.024L1656.93 542.297L1645.11 556.611ZM1628.04 536.125L1645.11 554.772L1654.96 542.953L1628.04 536.125Z" fill="#F39200"/>
</g>
<g opacity="0.1424">
<path opacity="0.1424" d="M1848.79 223.321L1881.22 171.45L1886.74 178.804V193.774L1848.79 223.321ZM1881.35 173.42L1853.25 218.331L1885.69 192.986V179.066L1881.35 173.42Z" fill="#F39200"/>
</g>
<g opacity="0.3504">
<path opacity="0.3504" d="M1451.54 301.325L1416.22 247.615L1461.92 267.445L1451.54 301.325ZM1419.24 250.242L1451.15 298.699L1460.47 268.233L1419.24 250.242Z" fill="#F39200"/>
</g>
<g opacity="0.5955">
<path opacity="0.5955" d="M1461.13 268.495L1417.4 249.585L1417.79 248.534L1471.37 262.586L1461.13 268.495ZM1424.89 251.423L1461.13 267.182L1468.48 262.848L1424.89 251.423Z" fill="#F39200"/>
</g>
<g opacity="0.8014">
<path opacity="0.8014" d="M1646.55 165.541L1607.16 164.753L1617.8 152.934L1646.55 165.541ZM1609.65 163.571L1640.78 164.227L1618.06 154.247L1609.65 163.571Z" fill="#F39200"/>
</g>
<g opacity="0.38">
<path opacity="0.38" d="M1607.95 165.409L1600.72 110.649L1618.45 153.59L1607.95 165.409ZM1603.09 119.316L1608.86 162.914L1617.27 153.59L1603.09 119.316Z" fill="#F39200"/>
</g>
<g opacity="0.9285">
<path opacity="0.9285" d="M1676.1 392.724L1683.45 359.368L1686.87 376.309L1676.1 392.724ZM1683.32 364.884L1678.46 386.683L1685.42 375.915L1683.32 364.884Z" fill="#F39200"/>
</g>
<g opacity="0.9356">
<path opacity="0.9356" d="M1737.43 459.04L1676.62 389.703L1686.21 374.995L1738.35 458.383L1737.43 459.04ZM1678.07 389.703L1733.62 452.999L1686.21 377.096L1678.07 389.703Z" fill="#F39200"/>
</g>
</svg>
