<svg width="79" height="79" viewBox="0 0 79 79" fill="none" xmlns="http://www.w3.org/2000/svg">
<path d="M57.636 61.8461C57.4858 61.8461 57.3372 61.8161 57.1987 61.7579C57.0603 61.6997 56.9348 61.6145 56.8297 61.5073C56.3232 60.9921 55.7637 60.5318 55.1606 60.1341C54.9251 59.9634 54.7645 59.7084 54.7123 59.4222C54.6601 59.136 54.7204 58.8408 54.8805 58.5979C55.0407 58.3551 55.2883 58.1834 55.5719 58.1187C55.8555 58.0539 56.1532 58.1011 56.4028 58.2504C57.1371 58.7365 57.8184 59.2982 58.4356 59.9263C58.5912 60.0851 58.6965 60.2863 58.7383 60.5047C58.7801 60.7232 58.7564 60.9491 58.6703 61.1541C58.5842 61.3591 58.4394 61.5342 58.2542 61.6573C58.069 61.7804 57.8516 61.8461 57.6292 61.8461H57.636Z" fill="white"/>
<path d="M60.8207 78.9999H17.9976C17.6981 78.9999 17.4108 78.8809 17.1991 78.6691C16.9873 78.4573 16.8683 78.1701 16.8683 77.8706V68.5538C16.8719 65.2753 18.1759 62.1321 20.4941 59.8138C22.8124 57.4956 25.9556 56.1916 29.2341 56.188H49.539C49.8385 56.188 50.1257 56.307 50.3375 56.5188C50.5493 56.7305 50.6683 57.0178 50.6683 57.3173C50.6683 57.6168 50.5493 57.904 50.3375 58.1158C50.1257 58.3276 49.8385 58.4466 49.539 58.4466H29.2341C26.5544 58.4496 23.9854 59.5154 22.0905 61.4102C20.1957 63.3051 19.1299 65.8741 19.1269 68.5538V76.7413H59.6914V68.5538C59.6936 67.765 59.6018 66.9788 59.4181 66.2117C59.379 66.0664 59.3693 65.9147 59.3896 65.7657C59.4099 65.6166 59.4598 65.4731 59.5363 65.3435C59.6128 65.214 59.7145 65.101 59.8353 65.0113C59.9561 64.9216 60.0936 64.857 60.2397 64.8212C60.3858 64.7854 60.5377 64.7791 60.6862 64.8028C60.8348 64.8264 60.9772 64.8796 61.1049 64.959C61.2327 65.0385 61.3433 65.1427 61.4303 65.2655C61.5172 65.3883 61.5787 65.5272 61.6112 65.6741C61.8376 66.6157 61.9513 67.5809 61.95 68.5493V77.8706C61.95 78.1701 61.831 78.4573 61.6192 78.6691C61.4074 78.8809 61.1202 78.9999 60.8207 78.9999Z" fill="white"/>
<path d="M39.407 51.8899C37.0662 51.8899 34.778 51.1958 32.8318 49.8953C30.8855 48.5949 29.3686 46.7465 28.4728 44.5839C27.577 42.4213 27.3427 40.0417 27.7993 37.7459C28.256 35.4501 29.3832 33.3413 31.0383 31.6861C32.6935 30.031 34.8023 28.9038 37.0981 28.4471C39.3939 27.9905 41.7735 28.2249 43.9361 29.1206C46.0986 30.0164 47.947 31.5333 49.2475 33.4796C50.5479 35.4259 51.2421 37.7141 51.2421 40.0548C51.2388 43.1927 49.9908 46.201 47.772 48.4198C45.5532 50.6386 42.5448 51.8866 39.407 51.8899ZM39.407 30.4783C37.5129 30.4783 35.6614 31.04 34.0866 32.0923C32.5117 33.1445 31.2843 34.6402 30.5595 36.3901C29.8347 38.1399 29.645 40.0654 30.0145 41.9231C30.384 43.7807 31.2961 45.4871 32.6354 46.8264C33.9747 48.1657 35.6811 49.0778 37.5387 49.4473C39.3964 49.8168 41.3219 49.6271 43.0717 48.9023C44.8216 48.1775 46.3173 46.9501 47.3695 45.3752C48.4218 43.8004 48.9835 41.9489 48.9835 40.0548C48.9808 37.5158 47.971 35.0815 46.1756 33.2862C44.3802 31.4908 41.946 30.481 39.407 30.4783Z" fill="white"/>
<path d="M50.4086 78.9998H28.4098C28.1103 78.9998 27.8231 78.8808 27.6113 78.6691C27.3995 78.4573 27.2805 78.17 27.2805 77.8705V71.4245C27.2805 71.125 27.3995 70.8377 27.6113 70.6259C27.8231 70.4141 28.1103 70.2952 28.4098 70.2952C28.7093 70.2952 28.9966 70.4141 29.2084 70.6259C29.4201 70.8377 29.5391 71.125 29.5391 71.4245V76.7412H49.2793V71.4245C49.2793 71.125 49.3983 70.8377 49.6101 70.6259C49.8219 70.4141 50.1091 70.2952 50.4086 70.2952C50.7081 70.2952 50.9954 70.4141 51.2071 70.6259C51.4189 70.8377 51.5379 71.125 51.5379 71.4245V77.8705C51.5379 78.17 51.4189 78.4573 51.2071 78.6691C50.9954 78.8808 50.7081 78.9998 50.4086 78.9998Z" fill="white"/>
<path d="M73.8991 31.6821C73.7161 31.682 73.5359 31.6374 73.374 31.5522L67.5389 28.485L61.7049 31.5522C61.5184 31.6506 61.308 31.6947 61.0977 31.6797C60.8873 31.6647 60.6854 31.5911 60.5147 31.4672C60.3441 31.3433 60.2115 31.1741 60.132 30.9788C60.0526 30.7834 60.0294 30.5698 60.0651 30.3619L61.1798 23.8651L56.4604 19.2598C56.3095 19.1128 56.2026 18.9265 56.152 18.722C56.1014 18.5174 56.109 18.3028 56.1739 18.1024C56.2389 17.9019 56.3586 17.7237 56.5196 17.5878C56.6806 17.4518 56.8764 17.3636 57.0849 17.3332L63.6089 16.3846L66.5259 10.4738C66.6297 10.2975 66.7778 10.1513 66.9555 10.0497C67.1331 9.94819 67.3342 9.89478 67.5389 9.89478C67.7435 9.89478 67.9446 9.94819 68.1223 10.0497C68.2999 10.1513 68.448 10.2975 68.5518 10.4738L71.4688 16.3846L77.9928 17.3332C78.2014 17.3635 78.3973 17.4515 78.5585 17.5874C78.7196 17.7232 78.8395 17.9015 78.9046 18.102C78.9697 18.3024 78.9774 18.5171 78.9268 18.7217C78.8763 18.9263 78.7694 19.1127 78.6184 19.2598L73.898 23.8605L75.0126 30.3574C75.0404 30.5195 75.0324 30.6858 74.9893 30.8445C74.9461 31.0032 74.8688 31.1506 74.7628 31.2764C74.6567 31.4021 74.5245 31.5032 74.3753 31.5725C74.2261 31.6418 74.0636 31.6776 73.8991 31.6776V31.6821ZM67.5389 26.0796C67.7219 26.0793 67.9022 26.1239 68.064 26.2095L72.3994 28.4884L71.5705 23.664C71.5396 23.4833 71.5531 23.2977 71.61 23.1234C71.6668 22.9491 71.7653 22.7912 71.8968 22.6635L75.4033 19.2451L70.5564 18.5415C70.3752 18.5152 70.2031 18.4452 70.0549 18.3376C69.9068 18.23 69.787 18.088 69.706 17.9238L67.5389 13.5319L65.3717 17.9193C65.2907 18.0835 65.1709 18.2255 65.0228 18.3331C64.8747 18.4407 64.7026 18.5107 64.5214 18.537L59.6744 19.2406L63.182 22.659C63.3134 22.7868 63.4116 22.9447 63.4683 23.1191C63.5249 23.2934 63.5383 23.4789 63.5073 23.6595L62.6784 28.4862L67.0137 26.2072C67.1755 26.1216 67.3558 26.0771 67.5389 26.0774V26.0796Z" fill="white"/>
<path d="M45.8373 21.7817C45.6545 21.7815 45.4744 21.7374 45.3122 21.6529L39.4771 18.5823L33.642 21.6507C33.4555 21.7487 33.2453 21.7926 33.0351 21.7775C32.825 21.7623 32.6232 21.6886 32.4528 21.5648C32.2823 21.4409 32.1499 21.2719 32.0704 21.0767C31.991 20.8815 31.9678 20.6681 32.0034 20.4604L33.118 13.9624L28.3975 9.3616C28.2465 9.21454 28.1397 9.02817 28.0891 8.82355C28.0386 8.61894 28.0463 8.40426 28.1114 8.2038C28.1765 8.00333 28.2964 7.82508 28.4575 7.68922C28.6186 7.55336 28.8146 7.4653 29.0232 7.43501L35.5471 6.48753L38.4607 0.579024C38.5646 0.402692 38.7127 0.256523 38.8903 0.15497C39.068 0.0534176 39.2691 0 39.4737 0C39.6784 0 39.8794 0.0534176 40.0571 0.15497C40.2348 0.256523 40.3829 0.402692 40.4867 0.579024L43.4071 6.48979L49.931 7.43727C50.1396 7.46756 50.3356 7.55562 50.4967 7.69148C50.6578 7.82734 50.7777 8.00559 50.8428 8.20605C50.9079 8.40652 50.9156 8.6212 50.8651 8.82581C50.8145 9.03043 50.7077 9.2168 50.5567 9.36386L45.8362 13.9646L46.9508 20.4626C46.9784 20.6247 46.9703 20.7908 46.9271 20.9494C46.8839 21.108 46.8065 21.2552 46.7005 21.3808C46.5945 21.5064 46.4623 21.6074 46.3132 21.6766C46.1641 21.7458 46.0017 21.7817 45.8373 21.7817ZM39.4771 16.1803C39.66 16.1801 39.8402 16.2243 40.0022 16.3091L44.3331 18.588L43.5042 13.7614C43.4733 13.5809 43.4868 13.3956 43.5435 13.2215C43.6001 13.0474 43.6983 12.8897 43.8294 12.7619L47.337 9.34353L42.4946 8.64449C42.3133 8.61806 42.1411 8.54791 41.993 8.4401C41.8448 8.33228 41.7251 8.19004 41.6442 8.02564L39.4771 3.6304L37.31 8.02112C37.2291 8.18552 37.1094 8.32776 36.9612 8.43558C36.8131 8.5434 36.6409 8.61355 36.4596 8.63998L31.6126 9.34353L35.1203 12.7619C35.2514 12.8897 35.3496 13.0474 35.4062 13.2215C35.4629 13.3956 35.4764 13.5809 35.4455 13.7614L34.6211 18.588L38.9565 16.3091C39.1172 16.225 39.2957 16.1808 39.4771 16.1803Z" fill="white"/>
<path d="M17.7752 31.6821C17.5918 31.6822 17.4112 31.6376 17.2489 31.5523L11.415 28.4851L5.57985 31.55C5.39335 31.6481 5.18314 31.692 4.97298 31.6768C4.76282 31.6616 4.56109 31.588 4.39062 31.4641C4.22014 31.3403 4.08771 31.1712 4.00829 30.9761C3.92888 30.7809 3.90565 30.5674 3.94123 30.3597L5.05586 23.8629L0.335376 19.2598C0.186358 19.1125 0.0812641 18.9266 0.0318502 18.723C-0.0175636 18.5194 -0.00934863 18.306 0.0555762 18.1068C0.120501 17.9076 0.239575 17.7303 0.399479 17.5949C0.559382 17.4595 0.753809 17.3712 0.961009 17.34L7.48498 16.3914L10.402 10.4806C10.5058 10.3043 10.6539 10.1581 10.8316 10.0566C11.0092 9.95503 11.2103 9.90161 11.415 9.90161C11.6196 9.90161 11.8207 9.95503 11.9983 10.0566C12.176 10.1581 12.3241 10.3043 12.4279 10.4806L15.3449 16.3914L21.8689 17.34C22.0774 17.3705 22.2732 17.4587 22.4342 17.5946C22.5952 17.7305 22.7149 17.9088 22.7799 18.1092C22.8449 18.3097 22.8525 18.5243 22.8018 18.7288C22.7512 18.9333 22.6444 19.1196 22.4934 19.2666L17.774 23.8674L18.8887 30.3642C18.9165 30.5264 18.9085 30.6926 18.8654 30.8513C18.8222 31.0101 18.7449 31.1575 18.6388 31.2832C18.5328 31.4089 18.4006 31.51 18.2514 31.5793C18.1022 31.6486 17.9397 31.6845 17.7752 31.6844V31.6821ZM11.415 26.0797C11.598 26.0794 11.7783 26.124 11.9401 26.2095L16.2755 28.4885L15.4466 23.6641C15.4155 23.4834 15.4289 23.298 15.4855 23.1236C15.5422 22.9493 15.6405 22.7914 15.7718 22.6635L19.2794 19.2451L14.4324 18.5416C14.2512 18.5153 14.0792 18.4453 13.931 18.3377C13.7829 18.2301 13.6631 18.088 13.5821 17.9239L11.415 13.532L9.24782 17.9239C9.16678 18.088 9.04702 18.2301 8.89888 18.3377C8.75074 18.4453 8.57866 18.5153 8.39746 18.5416L3.5505 19.2451L7.05133 22.6635C7.18388 22.7907 7.2834 22.9483 7.34125 23.1227C7.39911 23.2971 7.41356 23.4829 7.38335 23.6641L6.55444 28.4862L10.8898 26.2073C11.0516 26.1217 11.2319 26.0771 11.415 26.0774V26.0797Z" fill="white"/>
</svg>
