<svg width="786" height="733" viewBox="0 0 786 733" fill="none" xmlns="http://www.w3.org/2000/svg">
<path d="M598.146 49.3918C623.841 25.8642 653.836 4.09699 688.573 0.418334C723.31 -3.26032 762.641 17.6042 768.211 51.897C775.018 93.6486 731.83 132.59 741.348 173.834C748.245 203.659 780.895 223.27 785.058 253.58C787.611 272.221 778.127 291.111 763.821 303.434C749.516 315.756 731.024 322.256 712.464 325.855C639.86 339.927 546.834 306.164 509.057 240.095C469.136 170.269 550.714 92.791 598.146 49.3918Z" fill="#FBDD00"/>
<path d="M521.548 53.1488C578.078 62.9323 635.118 83.5147 674.461 125.052C716.435 169.388 733.055 231.88 739.544 292.453C745.886 351.696 743.889 412.484 726.611 469.514C709.334 526.545 675.947 579.738 627.54 614.878C557.079 666.097 464.7 673.86 377.484 677.844C328.112 680.1 278.231 681.691 229.642 672.687C181.053 663.682 133.214 643.133 99.6906 607.069C66.1676 571.004 48.9693 517.844 63.7171 470.902C81.7549 413.116 141.733 375.878 160.032 318.125C183.084 245.409 136.379 132.985 221.95 88.5587C308.838 43.467 426.969 36.7529 521.548 53.1488Z" fill="#F39200"/>
<path d="M1.91192 476.601C-3.63555 510.082 3.37537 544.735 16.6598 575.981C53.4955 662.475 141.45 725.136 235.609 732.042C258.298 733.712 281.985 732.178 302.383 722.067C322.78 711.956 339.241 691.837 339.888 669.189C340.682 641.678 318.798 618.252 294.51 605.072C270.221 591.892 242.643 585.663 218.116 572.923C187.588 557.046 163.413 530.416 148.823 499.576C134.371 468.962 142.686 436.948 132.136 407.598C104.444 330.493 9.44468 431.171 1.91192 476.601Z" fill="#FBDD00"/>
<path d="M160.576 189.079C193.27 207.416 239.08 197.418 261.065 167.165C298.502 115.664 266.306 9.18602 191.954 39.2472C131.08 63.8694 85.9513 147.226 160.576 189.079Z" fill="#FBDD00"/>
<path d="M277.175 644.116C248.488 640.799 220.861 631.352 196.188 616.42C171.516 601.489 150.381 581.428 134.234 557.611C118.329 533.627 107.827 506.504 103.449 478.104C99.0704 449.704 100.919 420.698 108.867 393.076L112.94 394.26C105.152 421.293 103.335 449.682 107.616 477.479C111.896 505.276 122.173 531.823 137.739 555.298C153.546 578.605 174.234 598.235 198.384 612.844C222.534 627.452 249.574 636.691 277.651 639.929L277.175 644.116Z" fill="white"/>
<path d="M680.155 443.844L675.946 443.393C682.435 384.105 689.151 322.809 680.279 262.766C670.398 195.907 641.152 140.671 598.043 107.224C551.224 70.9454 492.97 63.0803 452.357 62.8659C398.913 62.5387 345.469 74.4999 298.241 85.0168L297.311 80.8981C344.754 70.3361 398.663 58.3297 452.379 58.6569C493.662 58.8713 552.892 66.9056 600.652 103.907C644.692 138.03 674.46 194.18 684.499 262.168C693.416 322.719 686.678 384.297 680.155 443.844Z" fill="white"/>
<path d="M711.353 628.939L707.825 626.603C767.406 537.458 788.7 422.02 764.797 317.686L768.926 316.749C793.09 422.144 771.615 538.891 711.353 628.939Z" fill="white"/>
<path d="M4.13485 411.695L0.243652 410.025C12.9268 380.844 40.131 362.033 66.4389 343.843C69.5398 341.699 72.6179 339.559 75.6734 337.422C99.9507 320.372 132.464 293.504 134.529 257.304C135.822 234.623 125.215 214.514 113.984 193.221C106.837 179.68 99.4515 165.654 95.4015 150.894C81.6179 100.544 111.704 43.5583 161.098 26.2821L162.504 30.2654C115.992 46.5485 86.496 102.372 99.4968 149.732C103.422 164.051 110.705 177.852 117.739 191.212C128.743 212.077 140.122 233.652 138.76 257.496C136.593 295.569 103.116 323.305 78.1238 340.864C75.0986 343.015 72.0091 345.163 68.8553 347.307C43.0352 365.159 16.3302 383.62 4.13485 411.695Z" fill="#F39200"/>
<path d="M512.326 535.652C499.041 549.78 487.56 569.177 493.392 587.627C499.132 605.817 523.171 615.522 540.04 606.472C551.441 600.356 558.078 588.27 567.131 579.062C576.184 569.854 591.635 563.547 601.709 571.66C614.075 581.601 606.145 601.879 594.777 612.938C583.41 623.996 568.299 634.445 567.415 650.232C566.405 668.287 586.541 681.749 604.636 680.53C622.73 679.311 638.374 667.993 652.362 656.506C673.497 639.162 693.838 619.979 706.929 596.045C720.021 572.111 725.081 542.569 714.768 517.326C681.881 436.746 553.291 492.106 512.326 535.652Z" fill="#FBDD00"/>
</svg>
