<svg width="1542" height="730" viewBox="0 0 1542 730" fill="none" xmlns="http://www.w3.org/2000/svg">
<path d="M1542 52.6613C1542 24.0294 1518 1.24499 1489.41 2.72843L47.4095 77.5404C20.8378 78.9189 0 100.866 0 127.473V676C0 703.614 22.3858 726 50 726H1492C1519.61 726 1542 703.614 1542 676V52.6613Z" fill="white"/>
<mask id="mask0" style="mask-type:alpha" maskUnits="userSpaceOnUse" x="0" y="6" width="1542" height="724">
<path d="M1542 56.6613C1542 28.0294 1518 5.24499 1489.41 6.72843L47.4095 81.5404C20.8378 82.9189 0 104.866 0 131.473V680C0 707.614 22.3858 730 50 730H1492C1519.61 730 1542 707.614 1542 680V56.6613Z" fill="white"/>
</mask>
<g mask="url(#mask0)">
<rect x="1468.92" y="19.3848" width="6" height="6" rx="3" transform="rotate(-36.5425 1468.92 19.3848)" fill="#F39200"/>
<rect x="1489.81" y="3.90381" width="6" height="6" rx="3" transform="rotate(-36.5425 1489.81 3.90381)" fill="#F39200"/>
<rect x="1484.41" y="40.2734" width="6" height="6" rx="3" transform="rotate(-36.5425 1484.41 40.2734)" fill="#F39200"/>
<rect x="1505.29" y="24.7925" width="6" height="6" rx="3" transform="rotate(-36.5425 1505.29 24.7925)" fill="#F39200"/>
<rect x="1526.18" y="9.31177" width="6" height="6" rx="3" transform="rotate(-36.5425 1526.18 9.31177)" fill="#F39200"/>
<rect x="1499.89" y="61.1624" width="6" height="6" rx="3" transform="rotate(-36.5425 1499.89 61.1624)" fill="#F39200"/>
<rect x="1520.78" y="45.6814" width="6" height="6" rx="3" transform="rotate(-36.5425 1520.78 45.6814)" fill="#F39200"/>
<rect x="1541.67" y="30.2004" width="6" height="6" rx="3" transform="rotate(-36.5425 1541.67 30.2004)" fill="#F39200"/>
<rect x="1515.37" y="82.051" width="6" height="6" rx="3" transform="rotate(-36.5425 1515.37 82.051)" fill="#F39200"/>
<rect x="1536.26" y="66.5701" width="6" height="6" rx="3" transform="rotate(-36.5425 1536.26 66.5701)" fill="#F39200"/>
<rect x="1530.85" y="102.94" width="6" height="6" rx="3" transform="rotate(-36.5425 1530.85 102.94)" fill="#F39200"/>
<rect x="1349" y="75.9004" width="6" height="6" rx="3" transform="rotate(-36.5425 1349 75.9004)" fill="#F39200"/>
<rect x="1369.89" y="60.4194" width="6" height="6" rx="3" transform="rotate(-36.5425 1369.89 60.4194)" fill="#F39200"/>
<rect x="1390.78" y="44.9387" width="6" height="6" rx="3" transform="rotate(-36.5425 1390.78 44.9387)" fill="#F39200"/>
<rect x="1411.67" y="29.4578" width="6" height="6" rx="3" transform="rotate(-36.5425 1411.67 29.4578)" fill="#F39200"/>
<rect x="1432.56" y="13.9768" width="6" height="6" rx="3" transform="rotate(-36.5425 1432.56 13.9768)" fill="#F39200"/>
<rect x="1364.48" y="96.7893" width="6" height="6" rx="3" transform="rotate(-36.5425 1364.48 96.7893)" fill="#F39200"/>
<rect x="1385.37" y="81.3083" width="6" height="6" rx="3" transform="rotate(-36.5425 1385.37 81.3083)" fill="#F39200"/>
<rect x="1406.26" y="65.8274" width="6" height="6" rx="3" transform="rotate(-36.5425 1406.26 65.8274)" fill="#F39200"/>
<rect x="1427.15" y="50.3464" width="6" height="6" rx="3" transform="rotate(-36.5425 1427.15 50.3464)" fill="#F39200"/>
<rect x="1448.04" y="34.8657" width="6" height="6" rx="3" transform="rotate(-36.5425 1448.04 34.8657)" fill="#F39200"/>
<rect x="1379.96" y="117.678" width="6" height="6" rx="3" transform="rotate(-36.5425 1379.96 117.678)" fill="#F39200"/>
<rect x="1400.85" y="102.197" width="6" height="6" rx="3" transform="rotate(-36.5425 1400.85 102.197)" fill="#F39200"/>
<rect x="1421.74" y="86.7163" width="6" height="6" rx="3" transform="rotate(-36.5425 1421.74 86.7163)" fill="#F39200"/>
<rect x="1442.63" y="71.2354" width="6" height="6" rx="3" transform="rotate(-36.5425 1442.63 71.2354)" fill="#F39200"/>
<rect x="1463.52" y="55.7544" width="6" height="6" rx="3" transform="rotate(-36.5425 1463.52 55.7544)" fill="#F39200"/>
<rect x="1395.44" y="138.567" width="6" height="6" rx="3" transform="rotate(-36.5425 1395.44 138.567)" fill="#F39200"/>
<rect x="1416.33" y="123.086" width="6" height="6" rx="3" transform="rotate(-36.5425 1416.33 123.086)" fill="#F39200"/>
<rect x="1437.22" y="107.605" width="6" height="6" rx="3" transform="rotate(-36.5425 1437.22 107.605)" fill="#F39200"/>
<rect x="1458.11" y="92.124" width="6" height="6" rx="3" transform="rotate(-36.5425 1458.11 92.124)" fill="#F39200"/>
<rect x="1479" y="76.6433" width="6" height="6" rx="3" transform="rotate(-36.5425 1479 76.6433)" fill="#F39200"/>
<rect x="1410.92" y="159.456" width="6" height="6" rx="3" transform="rotate(-36.5425 1410.92 159.456)" fill="#F39200"/>
<rect x="1431.81" y="143.975" width="6" height="6" rx="3" transform="rotate(-36.5425 1431.81 143.975)" fill="#F39200"/>
<rect x="1452.7" y="128.494" width="6" height="6" rx="3" transform="rotate(-36.5425 1452.7 128.494)" fill="#F39200"/>
<rect x="1473.59" y="113.013" width="6" height="6" rx="3" transform="rotate(-36.5425 1473.59 113.013)" fill="#F39200"/>
<rect x="1494.48" y="97.532" width="6" height="6" rx="3" transform="rotate(-36.5425 1494.48 97.532)" fill="#F39200"/>
<rect x="1426.4" y="180.344" width="6" height="6" rx="3" transform="rotate(-36.5425 1426.4 180.344)" fill="#F39200"/>
<rect x="1447.29" y="164.863" width="6" height="6" rx="3" transform="rotate(-36.5425 1447.29 164.863)" fill="#F39200"/>
<rect x="1468.18" y="149.383" width="6" height="6" rx="3" transform="rotate(-36.5425 1468.18 149.383)" fill="#F39200"/>
<rect x="1489.07" y="133.902" width="6" height="6" rx="3" transform="rotate(-36.5425 1489.07 133.902)" fill="#F39200"/>
<rect x="1509.96" y="118.421" width="6" height="6" rx="3" transform="rotate(-36.5425 1509.96 118.421)" fill="#F39200"/>
<rect x="1441.89" y="201.233" width="6" height="6" rx="3" transform="rotate(-36.5425 1441.89 201.233)" fill="#F39200"/>
<rect x="1462.77" y="185.752" width="6" height="6" rx="3" transform="rotate(-36.5425 1462.77 185.752)" fill="#F39200"/>
<rect x="1483.66" y="170.271" width="6" height="6" rx="3" transform="rotate(-36.5425 1483.66 170.271)" fill="#F39200"/>
<rect x="1504.55" y="154.791" width="6" height="6" rx="3" transform="rotate(-36.5425 1504.55 154.791)" fill="#F39200"/>
<rect x="1525.44" y="139.31" width="6" height="6" rx="3" transform="rotate(-36.5425 1525.44 139.31)" fill="#F39200"/>
<rect x="1253" y="152.496" width="6" height="6" rx="3" transform="rotate(-36.5425 1253 152.496)" fill="#F39200"/>
<rect x="1273.89" y="137.015" width="6" height="6" rx="3" transform="rotate(-36.5425 1273.89 137.015)" fill="#F39200"/>
<rect x="1294.78" y="121.534" width="6" height="6" rx="3" transform="rotate(-36.5425 1294.78 121.534)" fill="#F39200"/>
<rect x="1315.67" y="106.053" width="6" height="6" rx="3" transform="rotate(-36.5425 1315.67 106.053)" fill="#F39200"/>
<rect x="1336.56" y="90.5725" width="6" height="6" rx="3" transform="rotate(-36.5425 1336.56 90.5725)" fill="#F39200"/>
<rect x="1268.48" y="173.385" width="6" height="6" rx="3" transform="rotate(-36.5425 1268.48 173.385)" fill="#F39200"/>
<rect x="1289.37" y="157.904" width="6" height="6" rx="3" transform="rotate(-36.5425 1289.37 157.904)" fill="#F39200"/>
<rect x="1310.26" y="142.423" width="6" height="6" rx="3" transform="rotate(-36.5425 1310.26 142.423)" fill="#F39200"/>
<rect x="1331.15" y="126.942" width="6" height="6" rx="3" transform="rotate(-36.5425 1331.15 126.942)" fill="#F39200"/>
<rect x="1352.04" y="111.461" width="6" height="6" rx="3" transform="rotate(-36.5425 1352.04 111.461)" fill="#F39200"/>
<rect x="1283.96" y="194.274" width="6" height="6" rx="3" transform="rotate(-36.5425 1283.96 194.274)" fill="#F39200"/>
<rect x="1304.85" y="178.793" width="6" height="6" rx="3" transform="rotate(-36.5425 1304.85 178.793)" fill="#F39200"/>
<rect x="1325.74" y="163.312" width="6" height="6" rx="3" transform="rotate(-36.5425 1325.74 163.312)" fill="#F39200"/>
<rect x="1346.63" y="147.831" width="6" height="6" rx="3" transform="rotate(-36.5425 1346.63 147.831)" fill="#F39200"/>
<rect x="1367.52" y="132.35" width="6" height="6" rx="3" transform="rotate(-36.5425 1367.52 132.35)" fill="#F39200"/>
<rect x="1299.44" y="215.163" width="6" height="6" rx="3" transform="rotate(-36.5425 1299.44 215.163)" fill="#F39200"/>
<rect x="1320.33" y="199.682" width="6" height="6" rx="3" transform="rotate(-36.5425 1320.33 199.682)" fill="#F39200"/>
<rect x="1341.22" y="184.201" width="6" height="6" rx="3" transform="rotate(-36.5425 1341.22 184.201)" fill="#F39200"/>
<rect x="1362.11" y="168.72" width="6" height="6" rx="3" transform="rotate(-36.5425 1362.11 168.72)" fill="#F39200"/>
<rect x="1383" y="153.239" width="6" height="6" rx="3" transform="rotate(-36.5425 1383 153.239)" fill="#F39200"/>
<rect x="1314.92" y="236.051" width="6" height="6" rx="3" transform="rotate(-36.5425 1314.92 236.051)" fill="#F39200"/>
<rect x="1335.81" y="220.57" width="6" height="6" rx="3" transform="rotate(-36.5425 1335.81 220.57)" fill="#F39200"/>
<rect x="1356.7" y="205.089" width="6" height="6" rx="3" transform="rotate(-36.5425 1356.7 205.089)" fill="#F39200"/>
<rect x="1377.59" y="189.608" width="6" height="6" rx="3" transform="rotate(-36.5425 1377.59 189.608)" fill="#F39200"/>
<rect x="1398.48" y="174.128" width="6" height="6" rx="3" transform="rotate(-36.5425 1398.48 174.128)" fill="#F39200"/>
<rect x="1330.4" y="256.94" width="6" height="6" rx="3" transform="rotate(-36.5425 1330.4 256.94)" fill="#F39200"/>
<rect x="1351.29" y="241.459" width="6" height="6" rx="3" transform="rotate(-36.5425 1351.29 241.459)" fill="#F39200"/>
<rect x="1372.18" y="225.979" width="6" height="6" rx="3" transform="rotate(-36.5425 1372.18 225.979)" fill="#F39200"/>
<rect x="1393.07" y="210.498" width="6" height="6" rx="3" transform="rotate(-36.5425 1393.07 210.498)" fill="#F39200"/>
<rect x="1413.96" y="195.017" width="6" height="6" rx="3" transform="rotate(-36.5425 1413.96 195.017)" fill="#F39200"/>
<rect x="1345.89" y="277.829" width="6" height="6" rx="3" transform="rotate(-36.5425 1345.89 277.829)" fill="#F39200"/>
<rect x="1366.77" y="262.348" width="6" height="6" rx="3" transform="rotate(-36.5425 1366.77 262.348)" fill="#F39200"/>
<rect x="1387.66" y="246.867" width="6" height="6" rx="3" transform="rotate(-36.5425 1387.66 246.867)" fill="#F39200"/>
<rect x="1408.55" y="231.386" width="6" height="6" rx="3" transform="rotate(-36.5425 1408.55 231.386)" fill="#F39200"/>
<rect x="1429.44" y="215.905" width="6" height="6" rx="3" transform="rotate(-36.5425 1429.44 215.905)" fill="#F39200"/>
<rect x="1470.58" y="651.421" width="6" height="6" rx="3" transform="rotate(-36.435 1470.58 651.421)" fill="#F39200"/>
<rect x="1491.5" y="635.979" width="6" height="6" rx="3" transform="rotate(-36.435 1491.5 635.979)" fill="#F39200"/>
<rect x="1512.41" y="620.538" width="6" height="6" rx="3" transform="rotate(-36.435 1512.41 620.538)" fill="#F39200"/>
<rect x="1533.33" y="605.096" width="6" height="6" rx="3" transform="rotate(-36.435 1533.33 605.096)" fill="#F39200"/>
<rect x="1486.02" y="672.339" width="6" height="6" rx="3" transform="rotate(-36.435 1486.02 672.339)" fill="#F39200"/>
<rect x="1506.94" y="656.897" width="6" height="6" rx="3" transform="rotate(-36.435 1506.94 656.897)" fill="#F39200"/>
<rect x="1527.85" y="641.456" width="6" height="6" rx="3" transform="rotate(-36.435 1527.85 641.456)" fill="#F39200"/>
<rect x="1501.46" y="693.256" width="6" height="6" rx="3" transform="rotate(-36.435 1501.46 693.256)" fill="#F39200"/>
<rect x="1522.38" y="677.815" width="6" height="6" rx="3" transform="rotate(-36.435 1522.38 677.815)" fill="#F39200"/>
<rect x="1516.9" y="714.174" width="6" height="6" rx="3" transform="rotate(-36.435 1516.9 714.174)" fill="#F39200"/>
<rect x="1386.91" y="713.188" width="6" height="6" rx="3" transform="rotate(-36.435 1386.91 713.188)" fill="#F39200"/>
<rect x="1407.82" y="697.746" width="6" height="6" rx="3" transform="rotate(-36.435 1407.82 697.746)" fill="#F39200"/>
<rect x="1428.74" y="682.304" width="6" height="6" rx="3" transform="rotate(-36.435 1428.74 682.304)" fill="#F39200"/>
<rect x="1449.66" y="666.862" width="6" height="6" rx="3" transform="rotate(-36.435 1449.66 666.862)" fill="#F39200"/>
<rect x="1423.27" y="718.664" width="6" height="6" rx="3" transform="rotate(-36.435 1423.27 718.664)" fill="#F39200"/>
<rect x="1444.18" y="703.222" width="6" height="6" rx="3" transform="rotate(-36.435 1444.18 703.222)" fill="#F39200"/>
<rect x="1465.1" y="687.78" width="6" height="6" rx="3" transform="rotate(-36.435 1465.1 687.78)" fill="#F39200"/>
<rect x="1459.62" y="724.14" width="6" height="6" rx="3" transform="rotate(-36.435 1459.62 724.14)" fill="#F39200"/>
<rect x="1480.54" y="708.698" width="6" height="6" rx="3" transform="rotate(-36.435 1480.54 708.698)" fill="#F39200"/>
<rect x="1351.44" y="521.496" width="6" height="6" rx="3" transform="rotate(-36.5425 1351.44 521.496)" fill="#F39200"/>
<rect x="1372.33" y="506.015" width="6" height="6" rx="3" transform="rotate(-36.5425 1372.33 506.015)" fill="#F39200"/>
<rect x="1393.22" y="490.534" width="6" height="6" rx="3" transform="rotate(-36.5425 1393.22 490.534)" fill="#F39200"/>
<rect x="1414.11" y="475.053" width="6" height="6" rx="3" transform="rotate(-36.5425 1414.11 475.053)" fill="#F39200"/>
<rect x="1435" y="459.573" width="6" height="6" rx="3" transform="rotate(-36.5425 1435 459.573)" fill="#F39200"/>
<rect x="1366.92" y="542.385" width="6" height="6" rx="3" transform="rotate(-36.5425 1366.92 542.385)" fill="#F39200"/>
<rect x="1387.81" y="526.904" width="6" height="6" rx="3" transform="rotate(-36.5425 1387.81 526.904)" fill="#F39200"/>
<rect x="1408.7" y="511.423" width="6" height="6" rx="3" transform="rotate(-36.5425 1408.7 511.423)" fill="#F39200"/>
<rect x="1429.59" y="495.942" width="6" height="6" rx="3" transform="rotate(-36.5425 1429.59 495.942)" fill="#F39200"/>
<rect x="1450.48" y="480.461" width="6" height="6" rx="3" transform="rotate(-36.5425 1450.48 480.461)" fill="#F39200"/>
<rect x="1382.41" y="563.274" width="6" height="6" rx="3" transform="rotate(-36.5425 1382.41 563.274)" fill="#F39200"/>
<rect x="1403.29" y="547.793" width="6" height="6" rx="3" transform="rotate(-36.5425 1403.29 547.793)" fill="#F39200"/>
<rect x="1424.18" y="532.312" width="6" height="6" rx="3" transform="rotate(-36.5425 1424.18 532.312)" fill="#F39200"/>
<rect x="1445.07" y="516.831" width="6" height="6" rx="3" transform="rotate(-36.5425 1445.07 516.831)" fill="#F39200"/>
<rect x="1465.96" y="501.35" width="6" height="6" rx="3" transform="rotate(-36.5425 1465.96 501.35)" fill="#F39200"/>
<rect x="1397.89" y="584.163" width="6" height="6" rx="3" transform="rotate(-36.5425 1397.89 584.163)" fill="#F39200"/>
<rect x="1418.78" y="568.682" width="6" height="6" rx="3" transform="rotate(-36.5425 1418.78 568.682)" fill="#F39200"/>
<rect x="1439.67" y="553.201" width="6" height="6" rx="3" transform="rotate(-36.5425 1439.67 553.201)" fill="#F39200"/>
<rect x="1460.55" y="537.72" width="6" height="6" rx="3" transform="rotate(-36.5425 1460.55 537.72)" fill="#F39200"/>
<rect x="1481.44" y="522.239" width="6" height="6" rx="3" transform="rotate(-36.5425 1481.44 522.239)" fill="#F39200"/>
<rect x="1413.37" y="605.051" width="6" height="6" rx="3" transform="rotate(-36.5425 1413.37 605.051)" fill="#F39200"/>
<rect x="1434.26" y="589.57" width="6" height="6" rx="3" transform="rotate(-36.5425 1434.26 589.57)" fill="#F39200"/>
<rect x="1455.15" y="574.089" width="6" height="6" rx="3" transform="rotate(-36.5425 1455.15 574.089)" fill="#F39200"/>
<rect x="1476.03" y="558.608" width="6" height="6" rx="3" transform="rotate(-36.5425 1476.03 558.608)" fill="#F39200"/>
<rect x="1496.92" y="543.128" width="6" height="6" rx="3" transform="rotate(-36.5425 1496.92 543.128)" fill="#F39200"/>
<rect x="1428.85" y="625.94" width="6" height="6" rx="3" transform="rotate(-36.5425 1428.85 625.94)" fill="#F39200"/>
<rect x="1449.74" y="610.459" width="6" height="6" rx="3" transform="rotate(-36.5425 1449.74 610.459)" fill="#F39200"/>
<rect x="1470.63" y="594.979" width="6" height="6" rx="3" transform="rotate(-36.5425 1470.63 594.979)" fill="#F39200"/>
<rect x="1491.52" y="579.498" width="6" height="6" rx="3" transform="rotate(-36.5425 1491.52 579.498)" fill="#F39200"/>
<rect x="1512.4" y="564.017" width="6" height="6" rx="3" transform="rotate(-36.5425 1512.4 564.017)" fill="#F39200"/>
<rect x="1444.33" y="646.829" width="6" height="6" rx="3" transform="rotate(-36.5425 1444.33 646.829)" fill="#F39200"/>
<rect x="1465.22" y="631.348" width="6" height="6" rx="3" transform="rotate(-36.5425 1465.22 631.348)" fill="#F39200"/>
<rect x="1486.11" y="615.867" width="6" height="6" rx="3" transform="rotate(-36.5425 1486.11 615.867)" fill="#F39200"/>
<rect x="1507" y="600.386" width="6" height="6" rx="3" transform="rotate(-36.5425 1507 600.386)" fill="#F39200"/>
<rect x="1527.88" y="584.905" width="6" height="6" rx="3" transform="rotate(-36.5425 1527.88 584.905)" fill="#F39200"/>
<rect x="1247" y="598.9" width="6" height="6" rx="3" transform="rotate(-36.5425 1247 598.9)" fill="#F39200"/>
<rect x="1267.89" y="583.419" width="6" height="6" rx="3" transform="rotate(-36.5425 1267.89 583.419)" fill="#F39200"/>
<rect x="1288.78" y="567.938" width="6" height="6" rx="3" transform="rotate(-36.5425 1288.78 567.938)" fill="#F39200"/>
<rect x="1309.67" y="552.458" width="6" height="6" rx="3" transform="rotate(-36.5425 1309.67 552.458)" fill="#F39200"/>
<rect x="1330.56" y="536.977" width="6" height="6" rx="3" transform="rotate(-36.5425 1330.56 536.977)" fill="#F39200"/>
<rect x="1262.48" y="619.789" width="6" height="6" rx="3" transform="rotate(-36.5425 1262.48 619.789)" fill="#F39200"/>
<rect x="1283.37" y="604.308" width="6" height="6" rx="3" transform="rotate(-36.5425 1283.37 604.308)" fill="#F39200"/>
<rect x="1304.26" y="588.828" width="6" height="6" rx="3" transform="rotate(-36.5425 1304.26 588.828)" fill="#F39200"/>
<rect x="1325.15" y="573.347" width="6" height="6" rx="3" transform="rotate(-36.5425 1325.15 573.347)" fill="#F39200"/>
<rect x="1346.04" y="557.866" width="6" height="6" rx="3" transform="rotate(-36.5425 1346.04 557.866)" fill="#F39200"/>
<rect x="1277.96" y="640.678" width="6" height="6" rx="3" transform="rotate(-36.5425 1277.96 640.678)" fill="#F39200"/>
<rect x="1298.85" y="625.197" width="6" height="6" rx="3" transform="rotate(-36.5425 1298.85 625.197)" fill="#F39200"/>
<rect x="1319.74" y="609.716" width="6" height="6" rx="3" transform="rotate(-36.5425 1319.74 609.716)" fill="#F39200"/>
<rect x="1340.63" y="594.235" width="6" height="6" rx="3" transform="rotate(-36.5425 1340.63 594.235)" fill="#F39200"/>
<rect x="1361.52" y="578.754" width="6" height="6" rx="3" transform="rotate(-36.5425 1361.52 578.754)" fill="#F39200"/>
<rect x="1293.44" y="661.567" width="6" height="6" rx="3" transform="rotate(-36.5425 1293.44 661.567)" fill="#F39200"/>
<rect x="1314.33" y="646.086" width="6" height="6" rx="3" transform="rotate(-36.5425 1314.33 646.086)" fill="#F39200"/>
<rect x="1335.22" y="630.605" width="6" height="6" rx="3" transform="rotate(-36.5425 1335.22 630.605)" fill="#F39200"/>
<rect x="1356.11" y="615.124" width="6" height="6" rx="3" transform="rotate(-36.5425 1356.11 615.124)" fill="#F39200"/>
<rect x="1377" y="599.643" width="6" height="6" rx="3" transform="rotate(-36.5425 1377 599.643)" fill="#F39200"/>
<rect x="1308.92" y="682.456" width="6" height="6" rx="3" transform="rotate(-36.5425 1308.92 682.456)" fill="#F39200"/>
<rect x="1329.81" y="666.975" width="6" height="6" rx="3" transform="rotate(-36.5425 1329.81 666.975)" fill="#F39200"/>
<rect x="1350.7" y="651.494" width="6" height="6" rx="3" transform="rotate(-36.5425 1350.7 651.494)" fill="#F39200"/>
<rect x="1371.59" y="636.013" width="6" height="6" rx="3" transform="rotate(-36.5425 1371.59 636.013)" fill="#F39200"/>
<rect x="1392.48" y="620.532" width="6" height="6" rx="3" transform="rotate(-36.5425 1392.48 620.532)" fill="#F39200"/>
<rect x="1324.4" y="703.344" width="6" height="6" rx="3" transform="rotate(-36.5425 1324.4 703.344)" fill="#F39200"/>
<rect x="1345.29" y="687.863" width="6" height="6" rx="3" transform="rotate(-36.5425 1345.29 687.863)" fill="#F39200"/>
<rect x="1366.18" y="672.383" width="6" height="6" rx="3" transform="rotate(-36.5425 1366.18 672.383)" fill="#F39200"/>
<rect x="1387.07" y="656.902" width="6" height="6" rx="3" transform="rotate(-36.5425 1387.07 656.902)" fill="#F39200"/>
<rect x="1407.96" y="641.421" width="6" height="6" rx="3" transform="rotate(-36.5425 1407.96 641.421)" fill="#F39200"/>
<rect x="1339.89" y="724.233" width="6" height="6" rx="3" transform="rotate(-36.5425 1339.89 724.233)" fill="#F39200"/>
<rect x="1360.77" y="708.752" width="6" height="6" rx="3" transform="rotate(-36.5425 1360.77 708.752)" fill="#F39200"/>
<rect x="1381.66" y="693.271" width="6" height="6" rx="3" transform="rotate(-36.5425 1381.66 693.271)" fill="#F39200"/>
<rect x="1402.55" y="677.791" width="6" height="6" rx="3" transform="rotate(-36.5425 1402.55 677.791)" fill="#F39200"/>
<rect x="1423.44" y="662.31" width="6" height="6" rx="3" transform="rotate(-36.5425 1423.44 662.31)" fill="#F39200"/>
<rect x="1091.44" y="142.497" width="6" height="6" rx="3" transform="rotate(-36.5425 1091.44 142.497)" fill="#F39200"/>
<rect x="1112.33" y="127.016" width="6" height="6" rx="3" transform="rotate(-36.5425 1112.33 127.016)" fill="#F39200"/>
<rect x="1133.22" y="111.535" width="6" height="6" rx="3" transform="rotate(-36.5425 1133.22 111.535)" fill="#F39200"/>
<rect x="1154.11" y="96.054" width="6" height="6" rx="3" transform="rotate(-36.5425 1154.11 96.054)" fill="#F39200"/>
<rect x="1175" y="80.573" width="6" height="6" rx="3" transform="rotate(-36.5425 1175 80.573)" fill="#F39200"/>
<rect x="1106.92" y="163.385" width="6" height="6" rx="3" transform="rotate(-36.5425 1106.92 163.385)" fill="#F39200"/>
<rect x="1127.81" y="147.904" width="6" height="6" rx="3" transform="rotate(-36.5425 1127.81 147.904)" fill="#F39200"/>
<rect x="1148.7" y="132.424" width="6" height="6" rx="3" transform="rotate(-36.5425 1148.7 132.424)" fill="#F39200"/>
<rect x="1169.59" y="116.943" width="6" height="6" rx="3" transform="rotate(-36.5425 1169.59 116.943)" fill="#F39200"/>
<rect x="1190.48" y="101.462" width="6" height="6" rx="3" transform="rotate(-36.5425 1190.48 101.462)" fill="#F39200"/>
<rect x="1122.41" y="184.274" width="6" height="6" rx="3" transform="rotate(-36.5425 1122.41 184.274)" fill="#F39200"/>
<rect x="1143.29" y="168.793" width="6" height="6" rx="3" transform="rotate(-36.5425 1143.29 168.793)" fill="#F39200"/>
<rect x="1164.18" y="153.312" width="6" height="6" rx="3" transform="rotate(-36.5425 1164.18 153.312)" fill="#F39200"/>
<rect x="1185.07" y="137.832" width="6" height="6" rx="3" transform="rotate(-36.5425 1185.07 137.832)" fill="#F39200"/>
<rect x="1205.96" y="122.351" width="6" height="6" rx="3" transform="rotate(-36.5425 1205.96 122.351)" fill="#F39200"/>
<rect x="1137.89" y="205.163" width="6" height="6" rx="3" transform="rotate(-36.5425 1137.89 205.163)" fill="#F39200"/>
<rect x="1158.78" y="189.682" width="6" height="6" rx="3" transform="rotate(-36.5425 1158.78 189.682)" fill="#F39200"/>
<rect x="1179.67" y="174.201" width="6" height="6" rx="3" transform="rotate(-36.5425 1179.67 174.201)" fill="#F39200"/>
<rect x="1200.55" y="158.72" width="6" height="6" rx="3" transform="rotate(-36.5425 1200.55 158.72)" fill="#F39200"/>
<rect x="1221.44" y="143.239" width="6" height="6" rx="3" transform="rotate(-36.5425 1221.44 143.239)" fill="#F39200"/>
<rect x="1153.37" y="226.052" width="6" height="6" rx="3" transform="rotate(-36.5425 1153.37 226.052)" fill="#F39200"/>
<rect x="1174.26" y="210.571" width="6" height="6" rx="3" transform="rotate(-36.5425 1174.26 210.571)" fill="#F39200"/>
<rect x="1195.15" y="195.09" width="6" height="6" rx="3" transform="rotate(-36.5425 1195.15 195.09)" fill="#F39200"/>
<rect x="1216.03" y="179.609" width="6" height="6" rx="3" transform="rotate(-36.5425 1216.03 179.609)" fill="#F39200"/>
<rect x="1236.92" y="164.128" width="6" height="6" rx="3" transform="rotate(-36.5425 1236.92 164.128)" fill="#F39200"/>
<rect x="1168.85" y="246.94" width="6" height="6" rx="3" transform="rotate(-36.5425 1168.85 246.94)" fill="#F39200"/>
<rect x="1189.74" y="231.459" width="6" height="6" rx="3" transform="rotate(-36.5425 1189.74 231.459)" fill="#F39200"/>
<rect x="1210.63" y="215.979" width="6" height="6" rx="3" transform="rotate(-36.5425 1210.63 215.979)" fill="#F39200"/>
<rect x="1231.52" y="200.498" width="6" height="6" rx="3" transform="rotate(-36.5425 1231.52 200.498)" fill="#F39200"/>
<rect x="1252.4" y="185.017" width="6" height="6" rx="3" transform="rotate(-36.5425 1252.4 185.017)" fill="#F39200"/>
<rect x="1184.33" y="267.83" width="6" height="6" rx="3" transform="rotate(-36.5425 1184.33 267.83)" fill="#F39200"/>
<rect x="1205.22" y="252.349" width="6" height="6" rx="3" transform="rotate(-36.5425 1205.22 252.349)" fill="#F39200"/>
<rect x="1226.11" y="236.868" width="6" height="6" rx="3" transform="rotate(-36.5425 1226.11 236.868)" fill="#F39200"/>
<rect x="1247" y="221.387" width="6" height="6" rx="3" transform="rotate(-36.5425 1247 221.387)" fill="#F39200"/>
<rect x="1267.88" y="205.906" width="6" height="6" rx="3" transform="rotate(-36.5425 1267.88 205.906)" fill="#F39200"/>
<rect x="987" y="219.901" width="6" height="6" rx="3" transform="rotate(-36.5425 987 219.901)" fill="#F39200"/>
<rect x="1007.89" y="204.42" width="6" height="6" rx="3" transform="rotate(-36.5425 1007.89 204.42)" fill="#F39200"/>
<rect x="1028.78" y="188.939" width="6" height="6" rx="3" transform="rotate(-36.5425 1028.78 188.939)" fill="#F39200"/>
<rect x="1049.67" y="173.458" width="6" height="6" rx="3" transform="rotate(-36.5425 1049.67 173.458)" fill="#F39200"/>
<rect x="1070.56" y="157.978" width="6" height="6" rx="3" transform="rotate(-36.5425 1070.56 157.978)" fill="#F39200"/>
<rect x="1002.48" y="240.79" width="6" height="6" rx="3" transform="rotate(-36.5425 1002.48 240.79)" fill="#F39200"/>
<rect x="1023.37" y="225.309" width="6" height="6" rx="3" transform="rotate(-36.5425 1023.37 225.309)" fill="#F39200"/>
<rect x="1044.26" y="209.828" width="6" height="6" rx="3" transform="rotate(-36.5425 1044.26 209.828)" fill="#F39200"/>
<rect x="1065.15" y="194.347" width="6" height="6" rx="3" transform="rotate(-36.5425 1065.15 194.347)" fill="#F39200"/>
<rect x="1086.04" y="178.866" width="6" height="6" rx="3" transform="rotate(-36.5425 1086.04 178.866)" fill="#F39200"/>
<rect x="1017.96" y="261.679" width="6" height="6" rx="3" transform="rotate(-36.5425 1017.96 261.679)" fill="#F39200"/>
<rect x="1038.85" y="246.198" width="6" height="6" rx="3" transform="rotate(-36.5425 1038.85 246.198)" fill="#F39200"/>
<rect x="1059.74" y="230.717" width="6" height="6" rx="3" transform="rotate(-36.5425 1059.74 230.717)" fill="#F39200"/>
<rect x="1080.63" y="215.236" width="6" height="6" rx="3" transform="rotate(-36.5425 1080.63 215.236)" fill="#F39200"/>
<rect x="1101.52" y="199.755" width="6" height="6" rx="3" transform="rotate(-36.5425 1101.52 199.755)" fill="#F39200"/>
<rect x="1033.44" y="282.567" width="6" height="6" rx="3" transform="rotate(-36.5425 1033.44 282.567)" fill="#F39200"/>
<rect x="1054.33" y="267.086" width="6" height="6" rx="3" transform="rotate(-36.5425 1054.33 267.086)" fill="#F39200"/>
<rect x="1075.22" y="251.605" width="6" height="6" rx="3" transform="rotate(-36.5425 1075.22 251.605)" fill="#F39200"/>
<rect x="1096.11" y="236.125" width="6" height="6" rx="3" transform="rotate(-36.5425 1096.11 236.125)" fill="#F39200"/>
<rect x="1117" y="220.644" width="6" height="6" rx="3" transform="rotate(-36.5425 1117 220.644)" fill="#F39200"/>
<rect x="1048.92" y="303.456" width="6" height="6" rx="3" transform="rotate(-36.5425 1048.92 303.456)" fill="#F39200"/>
<rect x="1069.81" y="287.975" width="6" height="6" rx="3" transform="rotate(-36.5425 1069.81 287.975)" fill="#F39200"/>
<rect x="1090.7" y="272.494" width="6" height="6" rx="3" transform="rotate(-36.5425 1090.7 272.494)" fill="#F39200"/>
<rect x="1111.59" y="257.013" width="6" height="6" rx="3" transform="rotate(-36.5425 1111.59 257.013)" fill="#F39200"/>
<rect x="1132.48" y="241.533" width="6" height="6" rx="3" transform="rotate(-36.5425 1132.48 241.533)" fill="#F39200"/>
<rect x="1064.4" y="324.345" width="6" height="6" rx="3" transform="rotate(-36.5425 1064.4 324.345)" fill="#F39200"/>
<rect x="1085.29" y="308.864" width="6" height="6" rx="3" transform="rotate(-36.5425 1085.29 308.864)" fill="#F39200"/>
<rect x="1106.18" y="293.383" width="6" height="6" rx="3" transform="rotate(-36.5425 1106.18 293.383)" fill="#F39200"/>
<rect x="1127.07" y="277.902" width="6" height="6" rx="3" transform="rotate(-36.5425 1127.07 277.902)" fill="#F39200"/>
<rect x="1147.96" y="262.421" width="6" height="6" rx="3" transform="rotate(-36.5425 1147.96 262.421)" fill="#F39200"/>
<rect x="1079.89" y="345.234" width="6" height="6" rx="3" transform="rotate(-36.5425 1079.89 345.234)" fill="#F39200"/>
<rect x="1100.77" y="329.753" width="6" height="6" rx="3" transform="rotate(-36.5425 1100.77 329.753)" fill="#F39200"/>
<rect x="1121.66" y="314.272" width="6" height="6" rx="3" transform="rotate(-36.5425 1121.66 314.272)" fill="#F39200"/>
<rect x="1142.55" y="298.791" width="6" height="6" rx="3" transform="rotate(-36.5425 1142.55 298.791)" fill="#F39200"/>
<rect x="1163.44" y="283.31" width="6" height="6" rx="3" transform="rotate(-36.5425 1163.44 283.31)" fill="#F39200"/>
<rect x="988.444" y="4.49585" width="6" height="6" rx="3" transform="rotate(-36.5425 988.444 4.49585)" fill="#F39200"/>
<rect x="1003.92" y="25.3848" width="6" height="6" rx="3" transform="rotate(-36.5425 1003.92 25.3848)" fill="#F39200"/>
<rect x="1024.81" y="9.90381" width="6" height="6" rx="3" transform="rotate(-36.5425 1024.81 9.90381)" fill="#F39200"/>
<rect x="1019.41" y="46.2734" width="6" height="6" rx="3" transform="rotate(-36.5425 1019.41 46.2734)" fill="#F39200"/>
<rect x="1040.29" y="30.7925" width="6" height="6" rx="3" transform="rotate(-36.5425 1040.29 30.7925)" fill="#F39200"/>
<rect x="1061.18" y="15.3118" width="6" height="6" rx="3" transform="rotate(-36.5425 1061.18 15.3118)" fill="#F39200"/>
<rect x="1034.89" y="67.1624" width="6" height="6" rx="3" transform="rotate(-36.5425 1034.89 67.1624)" fill="#F39200"/>
<rect x="1055.78" y="51.6814" width="6" height="6" rx="3" transform="rotate(-36.5425 1055.78 51.6814)" fill="#F39200"/>
<rect x="1076.67" y="36.2004" width="6" height="6" rx="3" transform="rotate(-36.5425 1076.67 36.2004)" fill="#F39200"/>
<rect x="1097.55" y="20.7195" width="6" height="6" rx="3" transform="rotate(-36.5425 1097.55 20.7195)" fill="#F39200"/>
<rect x="1118.44" y="5.23877" width="6" height="6" rx="3" transform="rotate(-36.5425 1118.44 5.23877)" fill="#F39200"/>
<rect x="1050.37" y="88.051" width="6" height="6" rx="3" transform="rotate(-36.5425 1050.37 88.051)" fill="#F39200"/>
<rect x="1071.26" y="72.5701" width="6" height="6" rx="3" transform="rotate(-36.5425 1071.26 72.5701)" fill="#F39200"/>
<rect x="1092.15" y="57.0894" width="6" height="6" rx="3" transform="rotate(-36.5425 1092.15 57.0894)" fill="#F39200"/>
<rect x="1113.03" y="41.6084" width="6" height="6" rx="3" transform="rotate(-36.5425 1113.03 41.6084)" fill="#F39200"/>
<rect x="1133.92" y="26.1274" width="6" height="6" rx="3" transform="rotate(-36.5425 1133.92 26.1274)" fill="#F39200"/>
<rect x="1065.85" y="108.94" width="6" height="6" rx="3" transform="rotate(-36.5425 1065.85 108.94)" fill="#F39200"/>
<rect x="1086.74" y="93.459" width="6" height="6" rx="3" transform="rotate(-36.5425 1086.74 93.459)" fill="#F39200"/>
<rect x="1107.63" y="77.978" width="6" height="6" rx="3" transform="rotate(-36.5425 1107.63 77.978)" fill="#F39200"/>
<rect x="1128.52" y="62.4971" width="6" height="6" rx="3" transform="rotate(-36.5425 1128.52 62.4971)" fill="#F39200"/>
<rect x="1149.4" y="47.0164" width="6" height="6" rx="3" transform="rotate(-36.5425 1149.4 47.0164)" fill="#F39200"/>
<rect x="1081.33" y="129.829" width="6" height="6" rx="3" transform="rotate(-36.5425 1081.33 129.829)" fill="#F39200"/>
<rect x="1102.22" y="114.348" width="6" height="6" rx="3" transform="rotate(-36.5425 1102.22 114.348)" fill="#F39200"/>
<rect x="1123.11" y="98.8669" width="6" height="6" rx="3" transform="rotate(-36.5425 1123.11 98.8669)" fill="#F39200"/>
<rect x="1144" y="83.386" width="6" height="6" rx="3" transform="rotate(-36.5425 1144 83.386)" fill="#F39200"/>
<rect x="1164.88" y="67.905" width="6" height="6" rx="3" transform="rotate(-36.5425 1164.88 67.905)" fill="#F39200"/>
<rect x="884" y="81.9004" width="6" height="6" rx="3" transform="rotate(-36.5425 884 81.9004)" fill="#F39200"/>
<rect x="904.889" y="66.4194" width="6" height="6" rx="3" transform="rotate(-36.5425 904.889 66.4194)" fill="#F39200"/>
<rect x="925.777" y="50.9387" width="6" height="6" rx="3" transform="rotate(-36.5425 925.777 50.9387)" fill="#F39200"/>
<rect x="946.666" y="35.4578" width="6" height="6" rx="3" transform="rotate(-36.5425 946.666 35.4578)" fill="#F39200"/>
<rect x="967.556" y="19.9768" width="6" height="6" rx="3" transform="rotate(-36.5425 967.556 19.9768)" fill="#F39200"/>
<rect x="899.48" y="102.789" width="6" height="6" rx="3" transform="rotate(-36.5425 899.48 102.789)" fill="#F39200"/>
<rect x="920.37" y="87.3083" width="6" height="6" rx="3" transform="rotate(-36.5425 920.37 87.3083)" fill="#F39200"/>
<rect x="941.259" y="71.8274" width="6" height="6" rx="3" transform="rotate(-36.5425 941.259 71.8274)" fill="#F39200"/>
<rect x="962.147" y="56.3464" width="6" height="6" rx="3" transform="rotate(-36.5425 962.147 56.3464)" fill="#F39200"/>
<rect x="983.036" y="40.8657" width="6" height="6" rx="3" transform="rotate(-36.5425 983.036 40.8657)" fill="#F39200"/>
<rect x="914.962" y="123.678" width="6" height="6" rx="3" transform="rotate(-36.5425 914.962 123.678)" fill="#F39200"/>
<rect x="935.851" y="108.197" width="6" height="6" rx="3" transform="rotate(-36.5425 935.851 108.197)" fill="#F39200"/>
<rect x="956.739" y="92.7163" width="6" height="6" rx="3" transform="rotate(-36.5425 956.739 92.7163)" fill="#F39200"/>
<rect x="977.628" y="77.2354" width="6" height="6" rx="3" transform="rotate(-36.5425 977.628 77.2354)" fill="#F39200"/>
<rect x="998.517" y="61.7544" width="6" height="6" rx="3" transform="rotate(-36.5425 998.517 61.7544)" fill="#F39200"/>
<rect x="930.442" y="144.567" width="6" height="6" rx="3" transform="rotate(-36.5425 930.442 144.567)" fill="#F39200"/>
<rect x="951.331" y="129.086" width="6" height="6" rx="3" transform="rotate(-36.5425 951.331 129.086)" fill="#F39200"/>
<rect x="972.221" y="113.605" width="6" height="6" rx="3" transform="rotate(-36.5425 972.221 113.605)" fill="#F39200"/>
<rect x="993.109" y="98.124" width="6" height="6" rx="3" transform="rotate(-36.5425 993.109 98.124)" fill="#F39200"/>
<rect x="1014" y="82.6433" width="6" height="6" rx="3" transform="rotate(-36.5425 1014 82.6433)" fill="#F39200"/>
<rect x="945.924" y="165.456" width="6" height="6" rx="3" transform="rotate(-36.5425 945.924 165.456)" fill="#F39200"/>
<rect x="966.812" y="149.975" width="6" height="6" rx="3" transform="rotate(-36.5425 966.812 149.975)" fill="#F39200"/>
<rect x="987.701" y="134.494" width="6" height="6" rx="3" transform="rotate(-36.5425 987.701 134.494)" fill="#F39200"/>
<rect x="1008.59" y="119.013" width="6" height="6" rx="3" transform="rotate(-36.5425 1008.59 119.013)" fill="#F39200"/>
<rect x="1029.48" y="103.532" width="6" height="6" rx="3" transform="rotate(-36.5425 1029.48 103.532)" fill="#F39200"/>
<rect x="961.404" y="186.344" width="6" height="6" rx="3" transform="rotate(-36.5425 961.404 186.344)" fill="#F39200"/>
<rect x="982.293" y="170.863" width="6" height="6" rx="3" transform="rotate(-36.5425 982.293 170.863)" fill="#F39200"/>
<rect x="1003.18" y="155.383" width="6" height="6" rx="3" transform="rotate(-36.5425 1003.18 155.383)" fill="#F39200"/>
<rect x="1024.07" y="139.902" width="6" height="6" rx="3" transform="rotate(-36.5425 1024.07 139.902)" fill="#F39200"/>
<rect x="1044.96" y="124.421" width="6" height="6" rx="3" transform="rotate(-36.5425 1044.96 124.421)" fill="#F39200"/>
<rect x="976.886" y="207.233" width="6" height="6" rx="3" transform="rotate(-36.5425 976.886 207.233)" fill="#F39200"/>
<rect x="997.774" y="191.752" width="6" height="6" rx="3" transform="rotate(-36.5425 997.774 191.752)" fill="#F39200"/>
<rect x="1018.66" y="176.271" width="6" height="6" rx="3" transform="rotate(-36.5425 1018.66 176.271)" fill="#F39200"/>
<rect x="1039.55" y="160.791" width="6" height="6" rx="3" transform="rotate(-36.5425 1039.55 160.791)" fill="#F39200"/>
<rect x="1060.44" y="145.31" width="6" height="6" rx="3" transform="rotate(-36.5425 1060.44 145.31)" fill="#F39200"/>
</g>
</svg>
